<svg xmlns="http://www.w3.org/2000/svg" xmlns:xlink="http://www.w3.org/1999/xlink" width="1280" height="1024" viewBox="0 0 1280 1024">
  <defs>
    <style>
      .cls-1, .cls-7 {
        fill: none;
      }

      .cls-2 {
        fill: #2a2a2a;
      }

      .cls-3 {
        fill: #212121;
      }

      .cls-4 {
        font-size: 61.03px;
      }

      .cls-12, .cls-20, .cls-21, .cls-24, .cls-26, .cls-34, .cls-37, .cls-4, .cls-8 {
        fill: #f3f3f3;
      }

      .cls-12, .cls-26, .cls-34, .cls-37, .cls-4, .cls-8 {
        font-family: MyriadPro-Regular, Myriad Pro;
      }

      .cls-5 {
        letter-spacing: -0.03em;
      }

      .cls-6 {
        letter-spacing: 0em;
      }

      .cls-7 {
        stroke: #fff;
        stroke-miterlimit: 10;
      }

      .cls-8 {
        font-size: 24.76px;
      }

      .cls-9 {
        letter-spacing: -0.04em;
      }

      .cls-10 {
        letter-spacing: -0.01em;
      }

      .cls-11 {
        letter-spacing: 0em;
      }

      .cls-12 {
        font-size: 29.9px;
      }

      .cls-13 {
        letter-spacing: -0.02em;
      }

      .cls-14 {
        letter-spacing: -0.01em;
      }

      .cls-15 {
        letter-spacing: 0.03em;
      }

      .cls-16 {
        letter-spacing: 0em;
      }

      .cls-17 {
        letter-spacing: 0em;
      }

      .cls-18 {
        letter-spacing: 0em;
      }

      .cls-19 {
        letter-spacing: 0.01em;
      }

      .cls-20 {
        opacity: 0.85;
      }

      .cls-21 {
        opacity: 0.5;
      }

      .cls-22 {
        opacity: 0.75;
      }

      .cls-23 {
        fill: #fff;
      }

      .cls-25 {
        fill: #202123;
      }

      .cls-26 {
        font-size: 12px;
      }

      .cls-27 {
        letter-spacing: -0.03em;
      }

      .cls-28 {
        letter-spacing: 0em;
      }

      .cls-29 {
        letter-spacing: 0.01em;
      }

      .cls-30 {
        fill: #0078f1;
      }

      .cls-31 {
        letter-spacing: 0.02em;
      }

      .cls-32 {
        letter-spacing: 0em;
      }

      .cls-33 {
        clip-path: url(#clip-path);
      }

      .cls-34 {
        font-size: 50.57px;
      }

      .cls-35 {
        letter-spacing: -0.04em;
      }

      .cls-36 {
        letter-spacing: 0em;
      }

      .cls-37 {
        font-size: 22.02px;
      }

      .cls-38 {
        letter-spacing: -0.01em;
      }

      .cls-39 {
        letter-spacing: 0em;
      }

      .cls-40 {
        letter-spacing: -0.01em;
      }

      .cls-41 {
        letter-spacing: 0em;
      }

      .cls-42 {
        letter-spacing: 0em;
      }

      .cls-43 {
        letter-spacing: -0.01em;
      }

      .cls-44 {
        letter-spacing: 0.01em;
      }

      .cls-45 {
        letter-spacing: 0em;
      }

      .cls-46 {
        letter-spacing: 0.01em;
      }

      .cls-47 {
        letter-spacing: 0em;
      }

      .cls-48 {
        letter-spacing: 0.02em;
      }

      .cls-49 {
        letter-spacing: -0.02em;
      }

      .cls-50 {
        letter-spacing: 0em;
      }

      .cls-51 {
        letter-spacing: -0.01em;
      }

      .cls-52 {
        letter-spacing: 0em;
      }

      .cls-53 {
        letter-spacing: -0.01em;
      }

      .cls-54 {
        letter-spacing: -0.01em;
      }

      .cls-55 {
        letter-spacing: -0.01em;
      }

      .cls-56 {
        opacity: 0.82;
      }
    </style>
    <clipPath id="clip-path">
      <rect class="cls-1" x="-1" y="560" width="640" height="465"/>
    </clipPath>
    <image id="image" width="379" height="379" xlink:href="../Downloads/arrow-right.png"/>
  </defs>
  <title>design</title>
  <g id="Layer_1" data-name="Layer 1">
    <rect class="cls-2" width="1280" height="43"/>
    <rect class="cls-3" width="1280" height="1024"/>
    <image width="1920" height="1080" transform="translate(0 -90) scale(0.67)" xlink:href="../Downloads/Epic+Games+Node_ue-alt-1920x1080-e653a4a4dae65307fd2420076abe44bb71b22f06.jpg"/>
    <image width="1920" height="1080" transform="matrix(-0.67, 0, 0, 0.67, 1279, 28)" xlink:href="../Downloads/Epic+Games+Node_ut-1920x1080-416b0b679e572854df52c39154aff5945328c04d.jpg"/>
    <rect class="cls-3" y="439" width="1280" height="585"/>
    <rect class="cls-1" y="439" width="1280" height="585"/>
    <text class="cls-4" transform="translate(70 182.79)">UNREAL<tspan class="cls-5" x="0" y="83.41">T</tspan><tspan x="28.69" y="83.41">OURN</tspan><tspan class="cls-6" x="183.22" y="83.41">A</tspan><tspan x="220.33" y="83.41">MENT</tspan></text>
    <rect class="cls-7" x="70" y="343" width="251.5" height="50"/>
    <text class="cls-8" transform="translate(99.68 375.73)">DOWN<tspan class="cls-9" x="70.79" y="0">L</tspan><tspan class="cls-10" x="81.51" y="0">O</tspan><tspan class="cls-11" x="98.23" y="0">AD NOW</tspan></text>
    <text class="cls-12" transform="translate(77.42 311.63)"><tspan class="cls-13">P</tspan><tspan class="cls-14" x="15.43" y="0">r</tspan><tspan class="cls-15" x="24.91" y="0">e</tspan><tspan class="cls-16" x="40.73" y="0">-</tspan><tspan class="cls-17" x="49.79" y="0">A</tspan><tspan class="cls-18" x="68" y="0">lpha </tspan><tspan class="cls-19" x="129.41" y="0">S</tspan><tspan x="144.33" y="0">eason</tspan></text>
    <g>
      <circle class="cls-20" cx="622.94" cy="425" r="6"/>
      <circle class="cls-21" cx="558" cy="425" r="6"/>
      <circle class="cls-21" cx="590.47" cy="425" r="6"/>
      <circle class="cls-21" cx="720.35" cy="425" r="6"/>
      <circle class="cls-21" cx="655.41" cy="425" r="6"/>
      <circle class="cls-21" cx="687.88" cy="425" r="6"/>
    </g>
    <g class="cls-22">
      <rect class="cls-23" x="1227.09" y="226.29" width="47.85" height="14.36" transform="translate(532.38 -816.82) rotate(45.05)"/>
      <rect class="cls-23" x="1227.07" y="249.98" width="47.85" height="14.36" transform="translate(2318.01 -444.71) rotate(135.05)"/>
    </g>
    <g class="cls-22">
      <rect class="cls-23" x="4.67" y="221.8" width="47.85" height="14.36" transform="translate(210.85 370.51) rotate(134.95)"/>
      <rect class="cls-23" x="4.69" y="245.48" width="47.85" height="14.36" transform="translate(186.87 53.64) rotate(44.95)"/>
    </g>
    <g>
      <path class="cls-24" d="M857.67,528.2c-.35-.73-.69-1.36-1-2a36.47,36.47,0,0,1-2.34-8.7c-.22-1.47-.42-2.94-.54-4.42-.09-1,0-2.11,0-3.17,0-.11,0-.23,0-.32-.66-.05-1.3-.06-1.92-.15a4.65,4.65,0,0,1-3.69-2.82,1.2,1.2,0,0,1-.07-.42c0-1.25-.05-2.51,0-3.77a6.83,6.83,0,0,1,.69-2.71,16.67,16.67,0,0,1,2-3.18c.25-.32.52-.63.76-1a.41.41,0,0,0,.06-.32,8,8,0,0,1,0-4.95.46.46,0,0,0-.07-.34c-.64-.87-1.32-1.7-1.92-2.6a9,9,0,0,1-1.52-4,2.62,2.62,0,0,1,0-.28c0-1.26,0-2.52,0-3.77a1.22,1.22,0,0,1,.11-.5,4.59,4.59,0,0,1,3.64-2.74c.46-.08.92-.11,1.38-.16A3.37,3.37,0,0,0,851,473.1a15.32,15.32,0,0,1,1.14-1.14,8.85,8.85,0,0,1,2.22-1.4c.24-.1.47-.22.7-.34.05,0,.08-.1.1-.16a5.85,5.85,0,0,0,.17-2c0-.06-.12-.16-.18-.16a13.91,13.91,0,0,0-4.45.41,3.06,3.06,0,0,0-2.38,3.28s0,0,0,.14a5.55,5.55,0,0,1-.49-.42,7.53,7.53,0,0,1-1.41-2.88c-.18-.66-.24-1.35-.36-2a.86.86,0,0,1,0-.16l.09-.07a1,1,0,0,0,.11.2,1.63,1.63,0,0,0,1.87.34,12.37,12.37,0,0,1,6.09-1.28h1c0-.29,0-.52,0-.76s.05-.23.23-.25a.66.66,0,0,0,.35-.18,1.42,1.42,0,0,0,.39-1.07c0-2.6.09-5.2.15-7.8a.68.68,0,0,0-.19-.51,2.09,2.09,0,0,1-.55-1.73h4.31a2.08,2.08,0,0,1-.58,1.76.62.62,0,0,0-.19.51l.15,8.11a1.11,1.11,0,0,0,.79.93.28.28,0,0,1,.17.18,2.67,2.67,0,0,1,0,.4c0,.4,0,.4.42.41.68,0,1.36,0,2,0a11.1,11.1,0,0,1,4.28,1,4,4,0,0,0,.87.34,1.69,1.69,0,0,0,1.59-.6c.28,1.32-1.22,5.23-2.22,5.43a2.61,2.61,0,0,1,0-.28,3,3,0,0,0-2-3,10.86,10.86,0,0,0-3.92-.55c-.22,0-.45,0-.68,0h-.48a6.46,6.46,0,0,0,.17,2.25.18.18,0,0,0,.09.13,10.63,10.63,0,0,1,2.65,1.53c.48.4.93.85,1.43,1.32-1.59.4-1.86,1.71-2.32,2.86.6.08,1.18.12,1.73.24a4.62,4.62,0,0,1,3.34,2.77,1.2,1.2,0,0,1,.07.42c0,1.24.06,2.49,0,3.74a6.83,6.83,0,0,1-.69,2.71,16.76,16.76,0,0,1-1.58,2.64c-.39.51-.8,1-1.18,1.5a.44.44,0,0,0-.07.35,7.78,7.78,0,0,1,0,4.91.34.34,0,0,0,.07.38c.63.81,1.28,1.61,1.85,2.46a9.4,9.4,0,0,1,1.6,4.1,2.83,2.83,0,0,1,0,.29c0,1.24,0,2.48,0,3.71a1.23,1.23,0,0,1-.09.47,4.62,4.62,0,0,1-3.7,2.8c-.6.09-1.21.1-1.88.16a38.5,38.5,0,0,1-.84,9.5A29.85,29.85,0,0,1,857.67,528.2ZM853.78,509v-.37c0-1.77,0-3.55,0-5.32a.6.6,0,0,1,.21-.49l3-2.83.8-.76.11.08c1.2,1.15,2.39,2.29,3.58,3.45a.65.65,0,0,1,.16.42c0,1.82,0,3.64,0,5.46V509h1.14a1,1,0,0,0,.39-.08,6.57,6.57,0,0,0,3.44-3.78.55.55,0,0,0,0-.4,16.42,16.42,0,0,0-1.56-2c-2.25-2.25-4.55-4.45-6.83-6.66-.42-.42-.58-.43-1,0l-6.38,6.19a11.53,11.53,0,0,0-1.94,2.41.68.68,0,0,0-.07.5,6.51,6.51,0,0,0,3.42,3.77.75.75,0,0,0,.29.09Zm4-21.94-.13-.1c-1.24-1.19-2.48-2.37-3.71-3.57a.53.53,0,0,1-.14-.37c0-.73,0-1.47,0-2.2a17,17,0,0,0-.34-4c0-.09-.11-.24-.16-.24a2.46,2.46,0,0,0-1.2.15,6.64,6.64,0,0,0-3.33,3.75.46.46,0,0,0,0,.4,15.19,15.19,0,0,0,1.43,1.92c2.3,2.29,4.65,4.54,7,6.8.4.39.56.39,1,0,2.13-2.07,4.26-4.15,6.4-6.21a12.76,12.76,0,0,0,1.94-2.39.55.55,0,0,0,.06-.55,6.74,6.74,0,0,0-2.09-2.92,3.24,3.24,0,0,0-2.25-1c-.2,0-.29.06-.32.26-.09.75-.26,1.49-.29,2.24,0,1.36,0,2.72,0,4.08a.56.56,0,0,1-.21.47l-2.23,2.13Zm-3.27,5.73-2-1.88a3.65,3.65,0,0,0,0,3.76Zm8.31,1.89a3.64,3.64,0,0,0,0-3.76l-1.94,1.87Z"/>
      <path class="cls-24" d="M883.18,509.14l-4.87-.27a21.6,21.6,0,0,0-4.1.07,3.11,3.11,0,0,1-.86,0,.54.54,0,0,1-.36-.28c-.09-.2,0-.37.25-.43s.28-.06.42-.09a2.06,2.06,0,0,0,1.78-1.75,18,18,0,0,0,.29-3.66V488.57a10,10,0,0,0-.35-3.07,2.59,2.59,0,0,0-2-2,4.2,4.2,0,0,0-.62-.08c-.12,0-.25,0-.37,0s-.49-.07-.52-.38.15-.43.5-.44c.56,0,1.12,0,1.68,0,1.79,0,3.58-.08,5.36-.15a18.11,18.11,0,0,1,6.39.55,7.13,7.13,0,0,1,3.41,2.18,5.4,5.4,0,0,1,1.18,3.92,5.31,5.31,0,0,1-2.53,4.3l-.87.6c-.24.18-.23.3.06.41a6.57,6.57,0,0,0,.76.21,6,6,0,0,1,4.59,4.87,7.6,7.6,0,0,1-4.6,8.77A10.91,10.91,0,0,1,883.18,509.14Zm-4.54-8.1h0c0,1.56,0,3.12,0,4.68a1.73,1.73,0,0,0,.63,1.55,2.4,2.4,0,0,0,.88.43,16,16,0,0,0,2.17.33,10.79,10.79,0,0,0,3.35-.2,5.1,5.1,0,0,0,3.88-3.56,7.57,7.57,0,0,0,.13-3.81,6.24,6.24,0,0,0-5.89-5c-1.38,0-2.77,0-4.15,0-.9,0-1,.1-1,1Zm.05-11.77h0c0,1.28,0,2.55,0,3.83,0,.86.17,1,1,1h3.23a10.63,10.63,0,0,0,1.7-.13,3.45,3.45,0,0,0,3-2.53,5.8,5.8,0,0,0-2.15-6.32,7.42,7.42,0,0,0-5.58-1.48,1.16,1.16,0,0,0-1.22,1.27C878.67,486.34,878.69,487.81,878.69,489.27Z"/>
      <path class="cls-24" d="M963.25,495.48a14.15,14.15,0,0,1-2.88,8.59,12.69,12.69,0,0,1-6,4.15,14,14,0,0,1-5.61.76c-1.92-.11-3.84-.21-5.76-.21-1.3,0-2.6.19-3.9.28a2.14,2.14,0,0,1-.67,0,.49.49,0,0,1-.28-.33.52.52,0,0,1,.22-.38,1.5,1.5,0,0,1,.48-.15,2,2,0,0,0,1.78-2.05c.05-.66.08-1.33.09-2,0-5.5,0-11,0-16.49a10.3,10.3,0,0,0-.2-2.07,2.51,2.51,0,0,0-2.41-2.1,1.81,1.81,0,0,1-.58-.12.42.42,0,0,1-.21-.34.46.46,0,0,1,.27-.31,1.34,1.34,0,0,1,.45,0c1.58,0,3.16.07,4.74,0,.93,0,1.86-.15,2.79-.22a30.32,30.32,0,0,1,4.47,0,18.05,18.05,0,0,1,4.94,1,11.73,11.73,0,0,1,7.94,9.25C963.13,493.63,963.15,494.56,963.25,495.48Zm-19.57,0v1.68c0,2.68,0,5.36,0,8A1.63,1.63,0,0,0,945,507c.76.24,1.54.43,2.31.6a11.92,11.92,0,0,0,5.57,0,9.4,9.4,0,0,0,5.78-4,11.19,11.19,0,0,0,1.63-5.6,15.65,15.65,0,0,0-1.65-8.2,11,11,0,0,0-5.88-5.39,13.41,13.41,0,0,0-5.58-.81,17.18,17.18,0,0,0-2.36.33,1.28,1.28,0,0,0-1.09,1.2c0,.33-.05.66-.05,1C943.67,489.25,943.68,492.36,943.68,495.48Z"/>
      <path class="cls-24" d="M968.12,501c0,1.21,0,2.42,0,3.63a7.08,7.08,0,0,0,.09,1.22c.16,1,.45,1.25,1.41,1.34a20.09,20.09,0,0,0,7.83-.63,6.61,6.61,0,0,0,3.62-2.39,1.76,1.76,0,0,1,.33-.43.54.54,0,0,1,.4-.11.42.42,0,0,1,.19.34,4.47,4.47,0,0,1-.23,1.22,6.54,6.54,0,0,1-3.22,3.47,6,6,0,0,1-3.14.39,66.12,66.12,0,0,0-8.44-.35c-1.13,0-2.25.2-3.38.3a3.25,3.25,0,0,1-.54,0c-.21,0-.4-.07-.44-.32a.39.39,0,0,1,.31-.47,6.34,6.34,0,0,1,.74-.23,1.69,1.69,0,0,0,1.36-1.4,7.82,7.82,0,0,0,.17-1.67q0-8.4,0-16.8a11.64,11.64,0,0,0-.29-3.06,2,2,0,0,0-2-1.65c-.27,0-.55,0-.82-.06s-.37-.07-.41-.29a.39.39,0,0,1,.24-.47,1.83,1.83,0,0,1,.69-.12c.87,0,1.74.16,2.61.21,1.29.07,2.57.14,3.85.16,2.56,0,5.11,0,7.66-.17l2.33-.16h.23c.48,0,.68.21.64.69-.07.77-.16,1.53-.24,2.3-.06.61-.12,1.22-.19,1.84,0,.08,0,.2-.07.24a1.06,1.06,0,0,1-.47.22c-.09,0-.25-.18-.27-.3a4.51,4.51,0,0,1,0-.82,2.15,2.15,0,0,0-2-2.29,24.17,24.17,0,0,0-3.9-.23h-3.05a3.31,3.31,0,0,0-.77.09.87.87,0,0,0-.82.9c0,.3,0,.61,0,.91,0,2.31,0,4.61,0,6.92,0,.36,0,.72,0,1.08s.14.52.54.55c.22,0,.45,0,.68,0,1.43,0,2.86,0,4.29,0a7.94,7.94,0,0,0,2.41-.39,1.22,1.22,0,0,0,.85-.88c.1-.32.18-.64.26-1a1.49,1.49,0,0,1,.09-.3.41.41,0,0,1,.49-.25.35.35,0,0,1,.28.4c0,.55,0,1.09-.08,1.63a27.32,27.32,0,0,0,.06,4.7,3.54,3.54,0,0,1,0,.46c0,.21-.06.39-.3.42a.43.43,0,0,1-.52-.3c-.06-.22-.1-.44-.15-.66s-.07-.32-.11-.47a2,2,0,0,0-1.93-1.62c-.62-.06-1.25-.08-1.88-.09l-3.77,0a3.27,3.27,0,0,0-.54,0c-.58.12-.75.33-.75.92V501Z"/>
      <path class="cls-24" d="M922.72,498.8H919c-.28,0-.55,0-.83.06a1.07,1.07,0,0,0-.93.62c-.43.91-.89,1.82-1.29,2.76s-.8,2-1.17,3a2.78,2.78,0,0,0-.11,1.54,1.18,1.18,0,0,0,.72.93c.46.19.93.32,1.4.47a2.2,2.2,0,0,1,.47.19.45.45,0,0,1,.14.34.35.35,0,0,1-.25.22,4.29,4.29,0,0,1-.8,0c-1.3,0-2.6-.11-3.91-.14-.6,0-1.21.06-1.82.08a1,1,0,0,1-.42,0,.49.49,0,0,1-.31-.27.32.32,0,0,1,.2-.44,2.77,2.77,0,0,1,.49-.15,2,2,0,0,0,1-.67,10.63,10.63,0,0,0,1.77-3c1.52-3.41,3.06-6.8,4.6-10.21q2.63-5.85,5.28-11.71a2,2,0,0,1,.28-.49.37.37,0,0,1,.63,0,2.34,2.34,0,0,1,.25.47q4.11,10.49,8.2,21c.33.82.71,1.62,1,2.45a3.13,3.13,0,0,0,2.6,2.07,7.65,7.65,0,0,1,.83.18c.22.07.4.19.35.45s-.26.29-.46.28c-1.23,0-2.46-.09-3.69-.1s-2.32,0-3.48.05c-.35,0-.7.08-1,.11s-.42,0-.47-.31.13-.39.36-.46a5.59,5.59,0,0,1,.56-.12c.91-.14,1.17-.79,1.06-1.59a14.77,14.77,0,0,0-.93-3.19c-.44-1.16-.88-2.32-1.33-3.48-.33-.85-.51-1-1.43-1ZM922.6,497h3.17a2.33,2.33,0,0,0,.53-.06.39.39,0,0,0,.32-.52,5.29,5.29,0,0,0-.2-.71q-1.57-4-3.16-8a1.38,1.38,0,0,0-.23-.39c-.14-.18-.29-.17-.4,0s-.16.31-.23.46c-.95,2.1-1.89,4.21-2.84,6.31-.31.68-.62,1.36-.91,2.05-.19.43,0,.66.41.76a1.63,1.63,0,0,0,.31,0Z"/>
      <path class="cls-24" d="M980.91,479.32v1.06H871.68v-1.06Z"/>
      <path class="cls-24" d="M901.1,507.43a20.11,20.11,0,0,0,6.48-1,6.23,6.23,0,0,0,2.15-1.2,8.88,8.88,0,0,0,.72-.88l.2-.31a.34.34,0,0,1,.46-.16.51.51,0,0,1,.16.41,5.12,5.12,0,0,1-1.1,2.52,5.39,5.39,0,0,1-3.53,2.07,13.45,13.45,0,0,1-3.64.09,55.78,55.78,0,0,0-8.07-.19c-.72.05-1.44.16-2.16.24a1.46,1.46,0,0,1-.51,0,.41.41,0,0,1-.28-.23.41.41,0,0,1,.11-.34,1,1,0,0,1,.37-.2c.36-.17.75-.29,1.09-.49a2.16,2.16,0,0,0,1-1.81c.08-.88.13-1.76.13-2.65q0-8.22,0-16.45a6.15,6.15,0,0,0-.09-1.22,2.35,2.35,0,0,0-2.08-2l-.83-.17c-.2-.05-.37-.14-.37-.38a.37.37,0,0,1,.39-.38c.45,0,.91,0,1.36,0,1.44,0,2.87.09,4.31.1.88,0,1.75-.07,2.62-.1.21,0,.45-.05.52.23s-.08.45-.38.56a2.66,2.66,0,0,1-.47.11,2.17,2.17,0,0,0-1.89,1.87,7.28,7.28,0,0,0-.17,1.47q0,8.58,0,17.17c0,.63,0,1.26.11,1.88.09,1,.37,1.24,1.33,1.33C899.75,507.37,900.42,507.39,901.1,507.43Z"/>
      <path class="cls-24" d="M893.85,475.36a1.47,1.47,0,0,0,0-.29c0-1.67,0-3.33,0-5,0-.62,0-1.24-.1-1.85a1.22,1.22,0,0,0-.95-1.18,3.7,3.7,0,0,1-.55-.14,1,1,0,0,1-.26-.21c.1,0,.2-.13.3-.12.66,0,1.31,0,2,.05.33,0,.66-.05,1-.06.06,0,.13.09.2.14s-.09.16-.15.17c-.73.15-.8.7-.81,1.29,0,1.28,0,2.57,0,3.86v5a2.58,2.58,0,0,1,0,.48c0,.1-.1.24-.17.25a.37.37,0,0,1-.31-.12c-.56-.62-1.11-1.26-1.66-1.89l-5.25-6a.74.74,0,0,0-.21-.13c0,.08-.09.16-.12.24a.47.47,0,0,0,0,.17v6a1.85,1.85,0,0,0,0,.23c.1.74.28.94,1,1.07.05,0,.13,0,.17,0a1.55,1.55,0,0,1,.21.23c-.09,0-.17.12-.25.12-.43,0-.86-.07-1.29-.07s-1.1,0-1.65,0c-.09,0-.18-.06-.27-.09a1.5,1.5,0,0,1,.2-.23,1.45,1.45,0,0,1,.26-.11,1.34,1.34,0,0,0,.89-1.34c0-1.52,0-3,0-4.57,0-.8,0-1.62-.09-2.42a3.64,3.64,0,0,0-.39-1.18,1.55,1.55,0,0,0-1.2-.86s-.09,0-.11,0-.09-.12-.14-.18.12-.12.19-.13c.47,0,.95,0,1.42,0a.7.7,0,0,1,.42.26c1,1.06,1.9,2.13,2.85,3.2l4.51,5.12a2.27,2.27,0,0,1,.18.25Z"/>
      <path class="cls-24" d="M935.25,475.36c0-.1,0-.2,0-.29,0-1.67,0-3.34,0-5,0-.62-.06-1.24-.11-1.85a1.21,1.21,0,0,0-.95-1.18,3.34,3.34,0,0,1-.52-.14,1.08,1.08,0,0,1-.28-.21c.11,0,.22-.13.33-.12.65,0,1.31,0,2,.05.31,0,.62-.05.93-.06.08,0,.16.07.23.11s-.09.19-.15.2c-.73.15-.8.71-.8,1.29,0,1.37,0,2.74,0,4.11V477a1.91,1.91,0,0,1,0,.48c0,.1-.09.24-.16.25a.39.39,0,0,1-.32-.12c-.56-.62-1.1-1.26-1.66-1.89q-2.61-3-5.24-6a.8.8,0,0,0-.22-.13,1.34,1.34,0,0,0-.12.24,1.31,1.31,0,0,0,0,.28v5.66c0,.23,0,.46.05.69a.83.83,0,0,0,.72.8,2.09,2.09,0,0,1,.36.08,1.61,1.61,0,0,1,.29.24.85.85,0,0,1-.34.11c-.71,0-1.42-.05-2.14-.06-.25,0-.51,0-.76,0a.68.68,0,0,1-.22-.09c0-.07.09-.19.16-.2a1.64,1.64,0,0,0,1.21-1.85c0-2.06,0-4.13,0-6.2a3.29,3.29,0,0,0-.43-1.58,1.68,1.68,0,0,0-1.23-.88s-.09,0-.11,0a.91.91,0,0,1-.13-.19c.06,0,.12-.11.18-.12.48,0,1,0,1.43,0a.73.73,0,0,1,.42.26q1.42,1.59,2.84,3.2,2.27,2.55,4.52,5.12a1.17,1.17,0,0,1,.17.26Z"/>
      <path class="cls-24" d="M904.7,474.45c0,.57,0,1.14,0,1.71a1.18,1.18,0,0,0,1.18,1.21.15.15,0,0,1,.09,0l.24.18c-.08.05-.16.14-.25.16a3.1,3.1,0,0,1-.43,0h-2.85a.67.67,0,0,1-.2,0c-.05,0-.15-.07-.14-.1s.06-.12.1-.18,0,0,.08,0c.82-.17.91-.64.92-1.35,0-1.31,0-2.61,0-3.92s0-2.47,0-3.71a2.84,2.84,0,0,0-.16-.86.92.92,0,0,0-.88-.66.47.47,0,0,1-.17,0c-.09-.05-.17-.12-.26-.18.1-.06.19-.18.28-.17.54,0,1.08.08,1.62.07,1.73,0,3.45-.07,5.17-.1l.23,0c.39-.07.45,0,.4.39s-.1,1-.16,1.45a.81.81,0,0,1,0,.27.22.22,0,0,1-.18.1s-.1-.08-.11-.13c-.06-.24-.1-.48-.16-.72a.6.6,0,0,0-.56-.49,15.91,15.91,0,0,0-3.16-.16c-.44,0-.58.15-.59.6,0,1.18,0,2.36,0,3.54,0,.24.16.3.33.3.87,0,1.73,0,2.6-.05a1,1,0,0,0,.91-.89c0-.08.12-.15.18-.23,0,.09.14.18.14.27,0,.85,0,1.69,0,2.54a2,2,0,0,1-.1.32l-.27-.27a0,0,0,0,1,0,0c-.15-.72-.18-.9-1.23-1-.71,0-1.42,0-2.13,0-.27,0-.39.14-.39.42C904.71,473.31,904.7,473.88,904.7,474.45Z"/>
      <path class="cls-24" d="M958.39,466.64h4.34c.45,0,.48.06.5.5s.07.79.08,1.19c0,.1-.09.2-.14.3-.07-.08-.15-.16-.22-.25s0-.05,0-.08c-.16-.65-.34-.82-1-.83h-2.54c-.39,0-.48.08-.48.47q0,4.17,0,8.34a1,1,0,0,0,.72,1c.09,0,.19,0,.28.08s.36,0,.29.24-.25.12-.38.12h-3a1.63,1.63,0,0,1-.31,0,1,1,0,0,1-.22-.13c.06-.07.12-.16.2-.19s.28-.05.41-.09a.78.78,0,0,0,.65-.77,7.52,7.52,0,0,0,0-.82v-7.31c0-.22,0-.44,0-.66a.29.29,0,0,0-.3-.31c-.86,0-1.72,0-2.58,0a1.07,1.07,0,0,0-1,.87,5.08,5.08,0,0,1-.15.52c0,.06-.12.09-.19.14a.66.66,0,0,1-.11-.2.88.88,0,0,1,0-.28c.07-.52.15-1,.21-1.55,0-.2.1-.32.31-.34l.4,0h4.2Z"/>
      <path class="cls-24" d="M975.62,477.7h-2.74c-.15,0-.3,0-.45,0s-.14-.08-.22-.12a1.12,1.12,0,0,1,.17-.2,1,1,0,0,1,.25-.05c.65-.14.83-.3.85-.95,0-1.24,0-2.49,0-3.74a1.52,1.52,0,0,0-.25-.69q-1.34-2.16-2.7-4.32a1.76,1.76,0,0,0-1.33-.8,1.09,1.09,0,0,1-.25,0c-.05,0-.13-.08-.12-.12a.28.28,0,0,1,.11-.17.88.88,0,0,1,.28,0l3.11,0c.14,0,.37,0,.39.1.07.23-.18.21-.31.27-.37.18-.49.43-.29.79.36.64.76,1.27,1.15,1.9s.73,1.16,1.1,1.73c.11.16.22.25.36,0,.66-1.05,1.34-2.08,2-3.14.38-.64.21-1-.5-1.22a2.14,2.14,0,0,1-.27-.09,1.25,1.25,0,0,1-.23-.23.79.79,0,0,1,.29-.11c.68,0,1.36.06,2,.07.29,0,.59,0,.88-.05.08,0,.15.07.23.1s-.09.18-.16.2a2.89,2.89,0,0,0-1.49,1.31c-.79,1.21-1.6,2.4-2.41,3.6a1.67,1.67,0,0,0-.31.93c0,1.26,0,2.51,0,3.77,0,.64.12.74.75.85a1.55,1.55,0,0,1,.31.06.7.7,0,0,1,.19.16,1.12,1.12,0,0,1-.21.17.59.59,0,0,1-.23,0Z"/>
      <path class="cls-24" d="M919.69,477.71h-2.91c-.23,0-.46,0-.68,0s-.15-.08-.23-.12a1.26,1.26,0,0,1,.2-.2.38.38,0,0,1,.19-.05.88.88,0,0,0,.8-.92c0-.39.05-.78.05-1.17,0-2.09,0-4.17,0-6.26a11.11,11.11,0,0,0-.08-1.16,1,1,0,0,0-.85-.9,1.77,1.77,0,0,1-.33-.08c-.09,0-.15-.14-.22-.22.09,0,.17-.12.25-.13s.4,0,.6,0l2.62,0c.16,0,.42,0,.44.12.06.23-.19.25-.34.29-.68.18-.78.73-.82,1.29,0,.83,0,1.67,0,2.51,0,1.31,0,2.63,0,3.94a11.35,11.35,0,0,0,.08,1.54c.11.71.38.95,1.08,1.1a1,1,0,0,1,.25.05,1.42,1.42,0,0,1,.28.22l-.3.2Z"/>
      <path class="cls-24" d="M947.48,477.71h-2.91c-.23,0-.46,0-.68,0s-.15-.1-.23-.15a1,1,0,0,1,.19-.17.67.67,0,0,1,.19-.05.86.86,0,0,0,.8-.92c0-.39.06-.78.06-1.17V469a9.24,9.24,0,0,0-.06-1,1,1,0,0,0-.9-1,.65.65,0,0,1-.24-.06,2.09,2.09,0,0,1-.28-.22,1.13,1.13,0,0,1,.33-.13,4,4,0,0,1,.49,0c.89,0,1.78,0,2.68,0a1.82,1.82,0,0,1,.43.11c-.11.1-.21.25-.33.29-.68.17-.78.71-.85,1.27a5.24,5.24,0,0,0,0,.79q0,3.08,0,6.14a6.39,6.39,0,0,0,.07,1.08,1.13,1.13,0,0,0,1.07,1.11.92.92,0,0,1,.25.05,1.48,1.48,0,0,1,.29.22l-.3.2Z"/>
      <path class="cls-24" d="M875.62,472.17c0-1.34,0-2.68,0-4,0-.8-.29-1.07-1.07-1.23h0l-.33-.23a1.2,1.2,0,0,1,.39-.13c1,0,2.07,0,3.1,0a1.77,1.77,0,0,1,.44.11c-.11.1-.21.25-.33.28-.69.18-.8.73-.85,1.3s0,1-.06,1.51v4.95c0,.45,0,.91.06,1.36a1.26,1.26,0,0,0,1.21,1.31c.17,0,.44,0,.41.23s-.3.15-.48.15H875a2.67,2.67,0,0,1-.4,0c-.07,0-.13-.09-.2-.15s.1-.16.16-.16c1-.13,1-.68,1-1.49,0-1.26,0-2.51,0-3.77Z"/>
    </g>
    <g>
      <path class="cls-24" d="M673,489.55l9.45-.22,8.72-.21h.31l-.29,3.31a11.29,11.29,0,0,0,3.41-2l-.72-1.07-.39.13-.16-.31.26-.19-.43-.57-.27.12-.19-.27h.08l.24-1a4.3,4.3,0,0,0,.52.27.34.34,0,0,0,.2-.05,1.71,1.71,0,0,0-.1-.51c-.18-.35-.39-.68-.6-1l-.82.54-.18-.48-.68.78-.09-.73-.73.44a1.61,1.61,0,0,1,.29-1.29l-.81.19a3,3,0,0,1,.57-1.4l-.66.42-.05,0,.51-1.14-.84.25.62-1.82-.11-.06-.68.43.5-1.46-.07-.05-.59.38.24-1.6-.06-.06-.25.42-.12-.08a11,11,0,0,1,.65-3.21,5,5,0,0,0,2,1.77l-.62.16,1.48.61v.06l-.81.07,0,.09,1.73,1.2-1.07.1a7.75,7.75,0,0,0,2,.8l-.79.44c.3.36.79.24,1.27.42l-.75.6,1.09.38-.9.19,1,.33-.9.43,0,.09h1.17l-.52.39.67.45c-.38.37-.82.26-1.24.27l0,.2h-.55l.87,1.57-.07-1,.11-.07.77.41,0,.1.29-.15c-.37-.42,0-.81,0-1.32l.84.68-.1.15.69-.41-.06-.88,1,.35c.49-.06.37-.6.49-1,.33,0,.53.46.92.2l-.6-2.08c-.23.15-.46.41-.7.42s-.52-.23-.79-.37a4.47,4.47,0,0,1-.32.49,1.33,1.33,0,0,1-.53.31,2.63,2.63,0,0,0,.15-.35,1.51,1.51,0,0,0,0-.34l-1.25.14.48-.69-.38-.08.57-1.07-.1-.07a1.53,1.53,0,0,1-1,.71l.3-1.13-.73.39a3.77,3.77,0,0,0,.65-1.6l-.78.09.48-1-.75-.13c.43-.4,1-.64.88-1.4a1.36,1.36,0,0,1-1.41.56c.33-.41.88-.63.87-1.23l-.81.15,0-.11a2.44,2.44,0,0,0,1.21-1.62,1.61,1.61,0,0,1-1.22.62,3.61,3.61,0,0,0,.67-2.18,1.06,1.06,0,0,1-.88.49,2.66,2.66,0,0,0,.78-1.85l-.34.17.37-1.21-.06,0-.53.44.85-3.58,3.37,2.87-.07.1-1.1-.26,0,.08c.55.8,1.49.91,2.34,1.25a1.43,1.43,0,0,1-1.4.27,5.19,5.19,0,0,0,2.58,1.38,1.59,1.59,0,0,1-1.5.42,2,2,0,0,0,2,1.07l-1.45.74a8.82,8.82,0,0,0,2.29.34,2,2,0,0,1-1.75.61,5.52,5.52,0,0,0,2.47.9c-.1.48-.42.65-1.19.69a4.38,4.38,0,0,0,.66.43,5.61,5.61,0,0,0,.86.23,2.88,2.88,0,0,1-1.82.22l1.1.94-1,.11a3.65,3.65,0,0,0,1.78.58,3.92,3.92,0,0,1-1.43.49l1.13.65c-.29.34-.56.35-1.72.08-.18.13.07.5-.29.52h-.74c.12.36.23.66.34,1s.24.62.34.94.17.22.24.06l.27-.84.13-.06.63.47-.14.18.22-.08.11-.92.11-.05.71.58.32-.92H703c.14.18.27.36.42.54s.09.06.13.09a1.42,1.42,0,0,0,0-.16l.09-1,.11,0,.66.82.15-.05.28-1,.67.6.48-.82c.27.17.41.5.74.31.12-.07.19-.22.31-.3s.43-.26.64-.38c-.13-.56.44-.66.64-1.05-.24.11-.46.22-.69.31a1.56,1.56,0,0,1-.31,0,2,2,0,0,1,0-.35.42.42,0,0,1,.09-.16l-.39.07V479c-.12.06-.21.47-.52.12l-1.38,1.61a2.83,2.83,0,0,1-.28-.5c0-.07.05-.2.11-.27.59-.69,1.21-1.35,1.78-2s1.21-1.53,1.78-2.32c.2-.26.39-.37.69-.22a1.75,1.75,0,0,0,.34.1l-1.42,1.67c.25.28,0,.52-.07.76s-.25.52-.35.8c.28-.24.55-.49.84-.71.08-.06.21,0,.32-.08,0,.12,0,.26,0,.34-.24.35-.51.68-.74,1.06l.52-.26a4.83,4.83,0,0,1,.56-.27.88.88,0,0,1,.28,0,.84.84,0,0,1,0,.32,4.62,4.62,0,0,0-.28.4,1.94,1.94,0,0,1,.35-.18,1.45,1.45,0,0,1,.36,0v.1c.39-.23.78-.44,1.15-.68a.44.44,0,0,0,.14-.28,4.51,4.51,0,0,0,0-.52l-.1,0a3.85,3.85,0,0,1-.23-.38,4.3,4.3,0,0,1-.07-2.56c.16-.7.27-1.41.37-2.12a.76.76,0,0,0-.13-.48,4.94,4.94,0,0,0-1.71-1.69,1.89,1.89,0,0,0-.54-.17,2.07,2.07,0,0,0-.44,0,3.47,3.47,0,0,1,.24-.54.46.46,0,0,1,.31-.12h2.11a10.64,10.64,0,0,1,0-2.39h.67l.13.58c.69.09.69.09.9-.58h.65l.14.59h.93c0-.61.12-1.22.12-1.82s-.08-1.29-.14-1.93c0-.16,0-.38-.21-.45,0,0,0-.07,0-.11-.11-.83-.22-1.65-.34-2.53.61.14.81-.34,1.09-.67.59-.67,1.16-1.36,1.77-2.07l.54.65c.48.58,1,1.16,1.43,1.73a2.61,2.61,0,0,0,.46.34l.09-.05v2.62l-.41,0c0,.32,0,.64,0,1a.31.31,0,0,0,.17.21,4.12,4.12,0,0,0,.66.34.41.41,0,0,1,.27.44c0,.75,0,1.51,0,2.26.6.16.68.11.86-.54h.68a5,5,0,0,1,.1.76c-.05,1-.15,2-.17,3a17.71,17.71,0,0,0,.14,1.92c0,.16,0,.29-.13.4a.28.28,0,0,0-.09.24c.1.88.21,1.76.32,2.64h.15a32.88,32.88,0,0,0,.61-3.5c.2-2.91.28-5.83.42-8.74a6.41,6.41,0,0,0,0-.87,1.12,1.12,0,0,1,.58-1.15c.55-.39,1-.84,1.56-1.28a.67.67,0,0,0,.17-.37,5.17,5.17,0,0,0-.06-1.92c-.08-.49-.16-1-.22-1.47a.52.52,0,0,1,.12-.36c.8-.83,1.61-1.65,2.41-2.47a.28.28,0,0,1,.38-.08l1.79.72.31.11v-.8l-.28-.1c.12-.34.22-.67.36-1a.37.37,0,0,1,.28-.16h2c0-.37,0-.71,0-1.05,0-.1.1-.18.14-.28a.56.56,0,0,0,.1-.24c0-.63,0-1.26,0-1.89,0-.22,0-.45,0-.73.51.16.82-.18,1.19-.37a5.26,5.26,0,0,1,2.5-.56c.84,0,1.13.41.9,1.23-.06.19,0,.22.17.27a8.75,8.75,0,0,0,4.22.21l1.15-.16a1.52,1.52,0,0,1-.22.19,8.75,8.75,0,0,1-4.84,1.77,7.36,7.36,0,0,1-1.55-.11c-.47-.06-.56-.26-.38-.72,0-.12.11-.23.15-.35s0-.41-.28-.32a5.39,5.39,0,0,0-1.35.52,5.84,5.84,0,0,0-1,.88c-.13.12-.25.27,0,.42,0,0,.06.17,0,.26a3.12,3.12,0,0,0,.44,1.89c.12.24.22.49.35.75h-.54c0,.58,0,1.16,0,1.73,0,.07.12.16.2.19.3.14.61.26.93.39a7,7,0,0,1-.18.95,5.25,5.25,0,0,0-.08,2.46,3.69,3.69,0,0,1,.07.65,2.62,2.62,0,0,0,.6,1.59c.6.86,1.18,1.74,1.75,2.62a1.06,1.06,0,0,1,.16.52c0,2.25.09,4.5.08,6.76a18,18,0,0,1-.28,2,11,11,0,0,0,.09,4.05,3.57,3.57,0,0,0,.9,1.7c0-.22,0-.37.05-.53a20.35,20.35,0,0,0,0-4,.54.54,0,0,0-.16-.27,4.38,4.38,0,0,0-.48-.3l.1-.25c.37-.76.74-1.53,1.09-2.3a1.39,1.39,0,0,0,.09-.45c0-.4,0-.81,0-1.23a1.29,1.29,0,0,1,.25,0c.41.09.59-.12.74-.47s.4-.88.63-1.36c.25.17.48.34.73.49.52.33,1,.68,1.59,1a.77.77,0,0,0,.63,0c.13-.06.26-.38.2-.48a1.49,1.49,0,0,1,0-1,.55.55,0,0,0-.24-.6,2,2,0,0,1-.72-1.13,1.48,1.48,0,0,1,.77-1.66.45.45,0,0,0,.23-.66,8.53,8.53,0,0,1-.33-4.72c.17-.8.39-.9,1-.39s1.14,1.07,1.71,1.61a1,1,0,0,0,.41.24c1,.15,2,.28,3,.4a.41.41,0,0,0,.29-.15,2.68,2.68,0,0,0,.24-.45l1.38,1.3a2.51,2.51,0,0,1-.43.13c-.4.05-.55.27-.59.67-.09.92-.25,1.83-.36,2.75a.61.61,0,0,0,.11.39c.39.64.82,1.26,1.17,1.91.51.95.35,1.2-.72,1.14a8.56,8.56,0,0,1-4.77-1.82l-.22-.18-.08,0c.2.52.4,1,.59,1.52s.19.5.75.5h.39c0,.12,0,.22,0,.32,0,.65,0,1.29,0,1.93a4.2,4.2,0,0,0,.43,2.1c.08.17.14.35.23.56-.69.11-.61.6-.6,1.07.05,2.28.08,4.57.12,6.85,0,.09,0,.19,0,.31l.43.07c0-.5,0-1,0-1.46a1.57,1.57,0,0,1,.15-.61,4.54,4.54,0,0,0,.42-2.05c0-.95,0-1.89.08-2.84,0-.07,0-.14,0-.24l2,.2a2.8,2.8,0,0,0,.47-2.19,5.07,5.07,0,0,1,0-.68c0-.29.16-.43.43-.49a.94.94,0,0,1,1.12.77,8.47,8.47,0,0,1,0,1.13l.76.1c.5.09.65.23.71.73a7.51,7.51,0,0,1,0,.95l-.13,0c-.09-.18-.18-.36-.28-.53a.74.74,0,0,0-.24-.31c-.35-.23-.56-.14-.67.27,0,.13-.07.26-.12.44l1.26.15,1.25.13a5,5,0,0,1-.08-.77c0-.37.27-.36.55-.3a6.91,6.91,0,0,0-.18-3.9l-1.76.15a8.85,8.85,0,0,1-1,0c-.25,0-.31-.16-.19-.35a2.92,2.92,0,0,1,.43-.61,4.41,4.41,0,0,1,1.51-1,3.18,3.18,0,0,1,2-.28,4.17,4.17,0,0,1,2,.92c.34.3.31.47-.12.58-.7.19-1.42.32-2.12.48l-.25.06a8.45,8.45,0,0,1,.17,4c.41-.06.59.15.58.42a3.1,3.1,0,0,1-.29.75l1.66.19c.37,0,.74.1,1.11.11s.37.12.42.37c.3,1.57.62,3.13.94,4.7.07.35.15.7.24,1.14l1.1-1.61h.05l-.43,2a.38.38,0,0,0,.59,0,10.3,10.3,0,0,1,1.31-.93l-.83,1.39c.17.18.27.14.4,0,.67-1,1.34-1.9,2-2.84a.42.42,0,0,1,.22-.19l-1.36,3.29.06.08a1.55,1.55,0,0,0,.4-.23c.23-.23.42-.48.69-.79v.95c.23.07.55-.09.57.33l1.36-.57,0,.05-.91.85s0,.06,0,.06c.39-.07.56.13.59.5,0,.18.11.24.29.23a5,5,0,0,1,.55,0l.21.63,1.94-1.63,0,.05-1.26,2,1.43.32,1.47-3.56c-.62-.13-1-.43-.88-1.22.1.58.47.78,1,.85a3.18,3.18,0,0,0,.1-.91,14,14,0,0,1-.13-4.34.44.44,0,0,0-.31-.56,2.91,2.91,0,0,1-.48-.21c-.12-.08-.23-.19-.4-.33-.39.1-.47-.34-.66-.64a1.28,1.28,0,0,0,.29.28.48.48,0,0,0,.34.07.37.37,0,0,0,.17-.27c0-.24,0-.49,0-.76l-.34.14a1.73,1.73,0,0,1-.11-.37c0-.25,0-.5,0-.84a3.49,3.49,0,0,1-.34.41c-.24.22-.45.16-.54-.15l-.17-.6c-.22.15-.46.42-.64.39s-.34-.36-.51-.56a1.24,1.24,0,0,1-.47.89l-.52-.44v.94l-.49-.15a1.43,1.43,0,0,1,0,.22c-.1.28-.26.32-.47.1a3,3,0,0,1-.8-2.73,4.05,4.05,0,0,1,2.05-3.1,17.21,17.21,0,0,0,2-1.5,2.85,2.85,0,0,1,1.25-.6,11.08,11.08,0,0,0,1.29-.33,3.12,3.12,0,0,1,2.19.09,6.71,6.71,0,0,1,2.48,1.58,27.31,27.31,0,0,1,3.19,4,2.75,2.75,0,0,1-.25,3.32c-.19.27-.42.51-.7.85l-.27-.84c-.09.28-.16.53-.26.76a1.31,1.31,0,0,1-.2.28l-.26-.3a.59.59,0,0,1,0-.15l-.4.58c-.34-.25-.28-.58-.2-1l-.32.23c-.28.21-.42.16-.48-.18,0-.07,0-.15,0-.29a4.87,4.87,0,0,1-.29.53.89.89,0,0,1-.39.29c-.08,0-.2-.18-.32-.3l-.4.49c-.06.07-.12.18-.19.2a1.65,1.65,0,0,1-.64.12c-.07,0-.1-.31-.16-.5l-.47.33c-.23.16-.38.12-.44-.16a4.62,4.62,0,0,1-.07-.65c-.29,0-.42.17-.43.49a15.19,15.19,0,0,1-.08,1.65,6.54,6.54,0,0,0,.67,3.53c.06.13.11.28.17.45.41-.39.82-.14,1.2.07s.73.11.61-.43a1,1,0,0,1,0-.17l-.5.43-.19-.49a3.57,3.57,0,0,1-.47.25,1.86,1.86,0,0,1-.16-.27l-.3.19a1.43,1.43,0,0,1-.2-.36,3.46,3.46,0,0,1,.09-1.94,1.73,1.73,0,0,1,1.18-1.07,4,4,0,0,1,1.91-.17,2.6,2.6,0,0,1,1,.42,4.38,4.38,0,0,1,1.32,1.42A1.44,1.44,0,0,1,778,482a2.62,2.62,0,0,1-1.26,1.44,1.29,1.29,0,0,1-.4.06l.06-.34c-.13,0-.34,0-.44-.05s-.09-.29-.13-.46a3.7,3.7,0,0,1-.44.28,1,1,0,0,1-.29.07c0-.09,0-.19,0-.29v-.12a1.09,1.09,0,0,0-.76,1.21,2.16,2.16,0,0,1,0,.44.65.65,0,0,0,.36.73,1.62,1.62,0,0,1,0,2.32.92.92,0,0,1-1.2-.21,1.78,1.78,0,0,1,0-1.93,3.47,3.47,0,0,1,.59-.45v-1.15a.25.25,0,0,0,0-.09,2,2,0,0,0-1-.32l0,0a1.41,1.41,0,0,0-1,1.32c-.11,1-.31,1.9-.46,2.85a2.4,2.4,0,0,0,0,.38l1.59.38a.61.61,0,0,1,.45.33c.41.72.84,1.43,1.25,2.15a.34.34,0,0,0,.38.18c2.87-.23,5.74-.44,8.6-.68,2-.16,3.91-.35,5.86-.51,1-.09,2.09-.15,3.14-.22V527c-1.25-.16-2.49-.34-3.73-.49l-2.67-.27c-3.81-.35-7.63-.72-11.45-1q-5.37-.44-10.76-.74c-4.27-.25-8.55-.48-12.82-.62-5.23-.17-10.45-.27-15.68-.34-6.71-.09-13.43,0-20.14.27-4.26.16-8.53.37-12.79.6q-4.54.24-9.08.59t-9.35.79c-2.66.25-5.32.57-8,.86L673,527Zm80,30.66c-.06-9-.13-18-.19-26.91h-6.37q.46,6.15.92,12.26l-.07,0-4.78-12-.38.07c-.7.16-1.4.33-2.11.48-.87.19-1.74.38-2.62.53-.31.06-.37.18-.37.47q0,12.09,0,24.2v.4h6.27c-.13-3.49-.25-7-.38-10.44a11.71,11.71,0,0,1,.59,1.31c.53,1.31,1.06,2.62,1.6,3.92.81,2,1.63,4,2.43,6a.29.29,0,0,0,.36.2c.53-.06,1.07-.09,1.61-.14Zm-30.71.38c-.71-2.22-1.41-4.39-2.1-6.56-.42-1.28-.83-2.56-1.24-3.84a.28.28,0,0,1,.1-.37,6.89,6.89,0,0,0,1.87-2.47,10.91,10.91,0,0,0-1.14-10.64,7.53,7.53,0,0,0-3.87-2.73,5.88,5.88,0,0,0-1.78-.22c-2.61,0-5.21,0-7.82,0H706V520.2h6.55l.27-8.06h.08q1.29,4.5,2.59,9Zm-34-12.93a26.87,26.87,0,0,0,.77,6.76,10.36,10.36,0,0,0,2.11,4.15,5.89,5.89,0,0,0,2.32,1.64,8.43,8.43,0,0,0,3.45.56,6.86,6.86,0,0,0,6.36-3.88,15,15,0,0,0,1.41-4.72,33.67,33.67,0,0,0,.29-6.58,20.73,20.73,0,0,0-1.39-7.42,6.93,6.93,0,0,0-4.89-4.25,8.15,8.15,0,0,0-5,.27,6.94,6.94,0,0,0-2.88,2,10.35,10.35,0,0,0-1.95,4.29A29.73,29.73,0,0,0,688.29,507.66Zm101,8.3h-4.91V510.6h4.15v-6.22h-4.25v-4.24l5-.2v-7.71l-11.74,1v29l11.74.93Zm-102-12h-4.55v-5.21h4.88c.3,0,.38-.08.4-.37.13-1.53.28-3.06.42-4.59.06-.66.11-1.32.17-2h-12.8v32.05l6.92-1.29V510.74h4.43Zm85.52,17.8V501.81h3.86v-6.69l-14.41.75v6.78H766v19.11ZM725.64,520h6.84V501.68h3.76V495L722,493.81v6.75h3.6Zm28.8-25.46v26.36h7V494.58Zm-58.37-5.67a3,3,0,0,0-.21-.3s-.09-.05-.14-.08,0,.14,0,.18c.11.22.24.42.35.61l3.63-2.21-.15-.29-.7.58-.22-.2-1.08.5.05.27-.64.36-.2-.27-.2.1.18.33Zm5.27-2.51c.44-.2.88-.44,1.34-.61.85-.32,1.72-.6,2.58-.91a2.82,2.82,0,0,0,.4-.24l0-.08-.32,0-.16-.54c-.31.2,0,.43-.09.63l-.72.21c0-.11-.05-.18-.08-.24a1.06,1.06,0,0,0-.15-.15.83.83,0,0,0-.06.21,2.86,2.86,0,0,0,.08.31l-.74.22-.15-.38c-.38.07-.05.34-.17.51l-.68.18-.17-.32-.1,0,.12.42-.71.34-.18-.44C701.06,485.7,701.06,485.88,701.34,486.4Zm47-23.46c.32.39.46.05.74-.15a2.47,2.47,0,0,0-.46-.17l-2.21-.08s-.08,0-.14,0c.25.3.48.58.73.85a.27.27,0,0,0,.2.09l1.11-.23Zm.57,3c0-.05.06-.07.06-.09.18-.75.37-1.49.53-2.24,0-.1-.06-.23-.11-.4-.21.24-.48.34-.34.57a1.43,1.43,0,0,0-.33.31,7,7,0,0,0-.38.78.29.29,0,0,0,0,.22Zm-52.17,20.34.59,1,1.07-.49-.86-1.12Zm46.92-20.24c-.47.19-.81.41-.87.88a1.19,1.19,0,0,0,.52,1.07Zm8.11,10.25c0-.25-.09-.47-.12-.68s-.18-.3-.35-.19-.59.42-.88.64l0,.09ZM699.3,486.48l0-.09L698.7,485l-.46.29c.27.37.52.71.78,1C699.07,486.43,699.2,486.44,699.3,486.48Zm49.31-22.75-.2-.23-1,.52.46.57Zm-37.46,7.89,0-1h-.89Zm59.28,4.18a.94.94,0,0,0-.22,1.07c0,.15.42.2.65.3a.18.18,0,0,0-.05-.15c-.29-.25-.47-.52-.27-.91C770.57,476.05,770.48,475.93,770.43,475.8Zm3.77,9.78a.71.71,0,0,0,0,1.1A.73.73,0,0,0,774.2,485.58Zm-77.64,2.11-.56-1-.26.17.57.91Zm4.35-2.43.1.05c0-.08.15-.17.13-.23-.09-.31-.22-.61-.33-.91-.2,0-.29.06-.22.25S700.8,485,700.91,485.26Zm.65-1.38c.12.3.21.57.32.84,0,.06.1.1.15.15s.07-.15.06-.21c-.07-.28-.15-.55-.23-.83,0,0,0,0-.05-.05Zm3-1.08.29.95.09,0c0-.08.12-.17.1-.25,0-.28-.13-.55-.2-.84Zm1.3.55c.26-.1.24-.36,0-1C705.55,482.44,705.55,482.5,705.83,483.35Zm-2.94,1.14.1,0c0-.08.1-.16.08-.23a5.75,5.75,0,0,0-.2-.71c0-.06-.09-.09-.13-.14s-.09.14-.08.19C702.72,483.92,702.81,484.21,702.89,484.49Zm41.31-16.35h.06l.06-.41c.07-.45.07-.45-.4-.49Zm-40.46,14.94c-.17.12-.11.47.16,1C704.06,484,704,483.58,703.74,483.08Zm-9.24,5.54c-.39-.71-.39-.71-.62-.59C694.1,488.23,694.16,488.57,694.5,488.62Zm5.36-3.05.06,0-.29-1-.22.11Zm-4.81,1.73c0,.35.28.84.53.85Zm-.43,1.71.66.89C695.13,489.36,694.88,489,694.62,489Z"/>
      <path class="cls-24" d="M712.64,499.77a1.48,1.48,0,0,1,1.27.62,3.51,3.51,0,0,1,.56,1.13,6.71,6.71,0,0,1-.05,3.69,4.92,4.92,0,0,1-.74,1.37,1.41,1.41,0,0,1-1,.52Z"/>
      <path class="cls-24" d="M697.72,507.23c-.08,1.9-.14,3.81-.26,5.71a11.23,11.23,0,0,1-.31,1.81c-.07.28-.18.64-.54.64s-.5-.36-.56-.65a20.37,20.37,0,0,1-.37-2.3,85.3,85.3,0,0,1,0-9.46,26.1,26.1,0,0,1,.36-2.9,1.45,1.45,0,0,1,.27-.61c.2-.29.51-.3.68,0a2.39,2.39,0,0,1,.34.87,27.07,27.07,0,0,1,.3,2.84c0,1.34,0,2.69,0,4Z"/>
    </g>
    <g>
      <path class="cls-24" d="M371.38,520.59l.65-.74-.16-.27-1.49.7.22-3.14-.32,0-.49.66c.87-5.08,1.78-10.38,2.74-15.94-1.68.17-3.12.27-4.55.5-.33.06-.69.53-.84.89a8,8,0,0,1-5.35,4.95,25.9,25.9,0,0,0-2.49,1.05l.52-2.33-.8.29V506.1a8.94,8.94,0,0,0-1.42.52c-1.35.71-2.66,1.49-4,2.21s-2.49,1.3-3.77,1.89c-5.45,2.52-10.88,5.1-16.38,7.51-3.9,1.7-7.28-.2-8.24-4.4a5.21,5.21,0,0,1-.31-1.75,7.68,7.68,0,0,1,.87-1.83l-1.17.47a4.66,4.66,0,0,1,.51-1.22c1.32-1.5,2.7-2.94,4-4.43.74-.83,1.38-1.74,2.14-2.55s1.53-1.46,2.3-2.17c2.21-2,4.42-4,6.62-6.07a3.46,3.46,0,0,0,.34-.52c-7.92,2.93-15,7.11-22.08,11,1.31,2.76,2.67,5.51,3.9,8.3a3.65,3.65,0,0,1,0,3.27l-.41.06-.42-1.74a8.92,8.92,0,0,1-.78,1.89,8.62,8.62,0,0,1-1.54,1.33l-.3-.27.43-1-2.89,2.13.1-1.34-.31-.14-1,1.71-1.65-2.42c-.79-.15-.67.62-.71,1.44l-1-2.1,1.26-1.07c-3.58-5.68-7.15-11.32-10.8-17.12-.47,1.22-.94,2.39-1.36,3.58q-1.59,4.51-3.14,9.06c-.19.54-.32.9-1.11,1-.63,0-1.21.73-1.83,1.1s-1.09.6-1.81,1V511.5c-1.82-.55-.67-1.95-1.25-3.27l-1.07,1.4-.17,0a15.7,15.7,0,0,0,.85-2c.13-.48-.11-1.06,0-1.54,1.43-5.16,2.81-10.34,4.4-15.45,1.15-3.67,2.64-7.22,3.9-10.86a16.32,16.32,0,0,0,.45-2.92c.08-.51.16-1,.27-1.8,1.36,1.36,2.51.29,3.65.23,1.95-.11,3.9-.32,5.85-.55,2.17-.26,4.37-.46,6.5-.91,1.67-.35,2.67-.09,3,1.38,1.33-.22,2.6.08,4.09-.37,2.15-.65,4.59-.4,6.91-.38,2.1,0,4.19.39,6.28.33a36,36,0,0,1,4.17-.1,34.12,34.12,0,0,0,6.16-.5c1.05,2.47.1,4.19-2.67,4.36-4.18.26-8.38.38-12.57.53-2.57.1-3.44.9-3.78,3.74h2.67c3.08,0,6.15-.12,9.23,0,.62,0,1.23.61,1.57.8l-.26,2.47-9.56,1.17a28.19,28.19,0,0,0-3.21.46c-3.32.82-3.91,3.42-4,5.9a3.18,3.18,0,0,0,.32.85l1.35-.44c4.86-1.55,9.71-3.13,14.58-4.62,1.33-.4,2.74-.48,4.11-.77a1.75,1.75,0,0,0,.8-.57c2.57-2.69,5.12-5.4,7.67-8.09a55.33,55.33,0,0,0,5.27-5.69,3,3,0,0,1,3.18-1.34l-.55.82c.06.05.12.14.17.14a1.74,1.74,0,0,1,2.17,1.33,1.74,1.74,0,0,0,.39.67,5.54,5.54,0,0,1,.73,6.63c-1.56,3.17-3.19,6.32-4.71,9.52-.95,2-1.71,4-2.64,6-.46,1-1.09,1.9-1.64,2.85l-.57-.12v-8l-.56-.18a73.65,73.65,0,0,0-15.58,16.71,11.42,11.42,0,0,0,1.62-.3c4.11-1.58,8.21-3.19,12.31-4.77a13.61,13.61,0,0,1,2.93-1,5.6,5.6,0,0,0,4.17-2.79c2.6-3.95,5-8,7.44-12.05,1.15-2,3-3.55,4.39-5.37a14.68,14.68,0,0,0,1.06-2.18,27.9,27.9,0,0,1,3.86-5.66,1.87,1.87,0,0,0,.47-1.16l-1.1,1.26a2,2,0,0,1,2-2.11c1.58.05,3.15.3,4.72.37,1.36.06,1.72.89,1.62,2-.3,3.53-.55,7.07-1,10.57-.44,3.12-1.19,6.2-1.73,9.31-.14.78.07,1.62-.06,2.41-.28,1.64-.74,3.26-1,4.91-.23,1.26-.28,2.56-.46,3.84-.53,3.69-1.05,7.38-1.66,11-.25,1.5-.34,3.08-1.41,4.34a6.14,6.14,0,0,0-.64,1.22l-.64-.54.77-1.63c-.33.25-.55.43-.79.58-.88.55-1.7,1-2.62-.06C372.74,521,372,520.89,371.38,520.59ZM320.7,480.82c-3.51,4-7,8.07-10.53,12.13a1,1,0,0,0-.11.89c1.11,1.82,2.28,3.62,3.6,5.68C317,493.44,318.81,487.12,320.7,480.82Zm-6.83-2.47-.28-.28c-2.36.22-4.71.49-7.06.66-.75,0-1,.31-1.16,1-.34,2.39-.76,4.77-1.09,7.16,0,.34.13.94.36,1a1.36,1.36,0,0,0,1.19-.19,56.89,56.89,0,0,0,4.92-4.77A42.38,42.38,0,0,0,313.87,478.35Zm56.52,18.19a12,12,0,0,0,1.48-.22c1.41-.37,2.92-.59,3.63-2.14s.67-6.05,0-7.73Z"/>
      <path class="cls-24" d="M382.65,525.21l1.44.36-3.94-2.66.28-.4.89.73c-1.37-1.16-.43-2.39-.17-3.63,1.28-6.2,2.66-12.4,3.75-18.64,1.19-6.75,2.12-13.56,3.14-20.34.13-.85.18-1.71.28-2.57a5.1,5.1,0,0,1,3.22-4.35c.42-.19.69-.72,1.1-1.16l.56.85.28-1.06c1.42-.2,3.16-1.36,3.68,1.21V472l.36,0c0,1,.8,1.74.54,3.05-1.36,7.15-2.47,14.35-3.72,21.53-.47,2.71-1.21,5.38-1.64,8.1-.82,5.14-1.5,10.31-2.29,15.82,1.51-.62,2.73-1.1,3.93-1.63,5.48-2.37,10.92-4.8,16.43-7.1,2.23-.93,4.58-1.5,7.23-.44-.67.39-1.15.73-1.68,1-2.59,1.21-5.15,2.49-7.79,3.55a152.85,152.85,0,0,0-15.63,7.81c-1.8,1-3.66,1.84-5.53,2.67a2.75,2.75,0,0,1-1.51,0c-.33-.06-.8-.6-.89-.53C384.07,526.5,383.57,525.84,382.65,525.21Z"/>
      <path class="cls-24" d="M417.53,503.41l-5.13,2.36c-2.12,1-4.25,1.92-6.36,2.9-1.71.8-3.4,1.67-5.13,2.45s-5.21-.6-5.94-2.53a1.14,1.14,0,0,1,0-.6c1.12-4.3,2.4-8.56,3.33-12.89,1.23-5.69,2.27-11.42,3.23-17.15.55-3.24,3-5,6-4.14a2.66,2.66,0,0,1,1.82,2.93c-1,4.59-2.1,9.16-3.08,13.76-1.13,5.3-2.18,10.63-3.26,15.94,0,.2,0,.42-.06.88,1.16-.45,2.16-.87,3.18-1.25,2.75-1,5.47-2.12,8.25-3a11.43,11.43,0,0,1,3-.19Z"/>
      <path class="cls-24" d="M364,460.48v-6.66h9.84c3.11,0,4.21,1.28,3.67,4.4a2.68,2.68,0,0,0,.37,2.12,3.49,3.49,0,0,1-3,5.46c-3.58.06-7.16,0-10.85,0v-3.87h2l.18,1.87c3,0,5.89.06,8.82,0,1.22,0,.92-1.13,1-1.91s-.35-1.38-1.29-1.38H364Zm2.23-1.7c2.82,0,5.57,0,8.31-.06.3,0,.79-.85.8-1.3s-.42-1.5-.69-1.51c-2.78-.11-5.57-.06-8.42-.06Z"/>
      <path class="cls-24" d="M339.6,453.82c1.34,0,2.68,0,4,0a3,3,0,0,1,3.26,3.09c.09,1.9.09,3.81,0,5.71a3,3,0,0,1-3.31,3.18c-2.68,0-5.37,0-8.05,0a2.93,2.93,0,0,1-3.25-3.1c-.09-1.94-.09-3.89,0-5.83s1.24-3,3.29-3.06C336.92,453.8,338.26,453.82,339.6,453.82Zm0,2h-3.89a1.08,1.08,0,0,0-1.23,1.18c0,1.85,0,3.71,0,5.57a1.12,1.12,0,0,0,1.28,1.27h7.66a1.07,1.07,0,0,0,1.21-1.19c0-1.86,0-3.72,0-5.58a1.1,1.1,0,0,0-1.28-1.25Z"/>
      <path class="cls-24" d="M301.28,465.65v-5.84h1.53c2.89,0,5.79,0,8.69,0,1.06,0,1.51-.44,1.46-1.48,0-.47.14-1,0-1.4s-.72-1.06-1.11-1.07c-2.72-.1-5.44-.05-8.28-.05l-.19,2.54h-2v-4.55h2.83c2.6,0,5.19,0,7.79,0a2.94,2.94,0,0,1,3.28,3.06c.2,2.26-.09,3.21-1.43,4.66l1.82,4c-1.76.64-2.33.53-2.84-1.07-.69-2.17-1.93-3-4.18-2.66a38.09,38.09,0,0,1-4.66.06,2.66,2.66,0,0,0-.49.13V464C303.42,466,303.38,466.06,301.28,465.65Z"/>
      <path class="cls-24" d="M402,465.81c-1.39,0-2.77,0-4.15,0a2.91,2.91,0,0,1-3.08-3c-.08-2-.08-4,0-6a2.92,2.92,0,0,1,3.2-3c2.72,0,5.45,0,8.17,0a2.88,2.88,0,0,1,3.19,3q.14,3,0,6c-.08,1.95-1.21,2.93-3.18,3H402Zm.06-2c1.22,0,2.43,0,3.64,0,1,0,1.46-.41,1.47-1.38,0-1.77,0-3.54,0-5.32,0-.87-.38-1.36-1.34-1.35q-3.76,0-7.52,0c-.86,0-1.31.36-1.32,1.22q0,2.79,0,5.58a1.13,1.13,0,0,0,1.31,1.24C399.51,463.84,400.76,463.85,402,463.85Z"/>
    </g>
    <g>
      <path class="cls-23" d="M161,470.08l4.19.91c-3.48-.28-4.81,2-6.1,4.6a46.59,46.59,0,0,1-4,6.78,11.08,11.08,0,0,1-3.73,3.09c-1.87,1-2.89,2.09-2,4.39,1.36-.55,3.4-.27,3-3,5.84,1.1,7.59-2.92,9.3-7,.74-1.79,1.58-3.54,2.42-5.28,1.13-2.35,3-3,5.52-2.54,1.36.26,2.75.38,4.12.52,3.82.38,7.06-.57,9.62-3.7,3.15-3.85,7.33-4.72,12-3.45a11.68,11.68,0,0,1,1.65.76l0,.61a16.26,16.26,0,0,1-3.55.55,5.32,5.32,0,0,0-5.09,2.21c-2.68,4-6.22,6.43-11.17,6.53,1.43,3.57,2.16,4.29,5.45,2.91s6-3.62,8.87-5.58c1.19-.81,2.23-1.86,3.34-2.79,1.73-1.43,3.36-.86,4.92.29,1,.73.75,1.52-.29,1.81a17.28,17.28,0,0,0-7.46,4.72c-.47.46-1.36.49-2.2.77,0,2.22-2.77,4.26-6.95,4.74l.78,2c-6.29-1.77-8.93-7.35-13-11.16l-.54.51,2.07,3.32-.22.29L168.52,475c-1.21,2-2.52,3.88-3.57,5.91s-1.71,4-2.53,6c5.23,1.37,5.48,1.69,5.48,7.65,0,2,0,4,0,6-.05,3.9-1.22,5.22-5.09,5.71-1.16.14-2.34.14-3.81.22v11.23H147.31c-.72-4.36-1.43-8.61-2.14-12.86l-.38,0c-.48,3.68-1,7.35-1.4,11-.14,1.46-.53,2.1-2.11,2-1.85-.14-3.73,0-5.79,0-.76-4.55-1.49-9-2.23-13.38l-.28,0c-.55,4.39-1.1,8.78-1.67,13.26h-5.78v-2.61c-3.27,3.39-7.11,3.48-11,2.57-2.91-.67-4-2.23-4.06-5.21,0-6.59-.13-13.18,0-19.77,0-1.72,1-3.41,1.6-5.48-1.79-1.2-1.86-3.63-1.82-6.19.09-5.76,0-11.52,0-17.28,0-4.29,1.52-6.1,5.8-6.59a12.94,12.94,0,0,1,5.34.29c1.64.53,3,1.86,4.51,2.85l-.24.44-.32-3.34h6q.81,6.57,1.63,13.14h.3c.74-4.37,1.47-8.74,2.22-13.19h7.58c.58,4.31,1.16,8.66,1.74,13l.37,0c.7-4.26,1.4-8.53,2.13-13h5.5c-1.09,8.61-2.17,17.18-3.33,26.37a9.42,9.42,0,0,0,1.78-1.52c1.86-2.82,3.67-5.68,5.46-8.55a5,5,0,0,1,4.79-2.75l-.43-1Zm-37.82,17.44c2.23,1.52,2.71,3.57,2.67,5.92-.07,3.89,0,7.77,0,11.66v5.59a37,37,0,0,0,1.09-6.17c.9-8.51,2.82-16.94,1.08-25.61-1-4.82-1.29-9.76-1.9-14.65-.34,5.9-.38,11.78-.32,17.66C125.83,484.12,125.41,486.06,123.21,487.52Zm15.14,15.07a57.75,57.75,0,0,0,0-29.93A61.37,61.37,0,0,0,138.35,502.59ZM119.2,472.75c0-3.26,0-6.52,0-9.78,0-.57-.69-1.12-1.06-1.67-.43.57-1.21,1.13-1.22,1.71q-.14,9.78,0,19.56c0,.6.78,1.19,1.19,1.79.38-.61,1.07-1.21,1.09-1.83C119.26,479.28,119.2,476,119.2,472.75Zm0,29.65c0-3.33.06-6.66,0-10,0-.53-.73-1-1.12-1.56-.38.54-1.08,1.07-1.08,1.62q-.12,9.88,0,19.77c0,.56.68,1.12,1,1.68.4-.58,1.13-1.14,1.15-1.74C119.31,508.93,119.25,505.66,119.25,502.4Zm33.07-10.89c-2,1.21-2.71,2.67-2.29,4.87.54,2.85.81,5.76,1.18,8.64.3,2.31.58,4.62.86,6.93l.25-.05ZM159,502c1.51.14,2.27-.4,2.26-1.91,0-2.2,0-4.41,0-6.61,0-1.49-.69-2.1-2.26-1.9Z"/>
      <path class="cls-23" d="M13.91,495.91c10.94-2.57,21.37-.28,31.86,1.53l-2.61-4.59,6.27.33s.07.54.19,1.41c.79-1.16,1.6-2.11,3-.35l-6,2.68A3.62,3.62,0,0,0,51.88,499c1.29-.8,2.39-1.88,3.61-2.78a3.3,3.3,0,0,1,1-.38L59,493.49l1.81,2c1.21-1.26-.83-4.85,3-4.78l.24,3.09L66.07,492l.41.37a17.84,17.84,0,0,1-1.72,1.85c-1.37,1.14-3.23,1.92-4.13,3.33-2.41,3.81-5.62,4.86-9.79,3.8l-1.18-.27c0,1.9,1.18,2.51,2.68,2.89,4.69,1.19,8.7,0,11.78-3.67,2.52-3.05,5.69-4,9.44-3.57a33,33,0,0,1,4.79.63,3.36,3.36,0,0,0,4.14-1.52,67.36,67.36,0,0,0,5-10.42c.64-1.87-.13-4.21-.28-6.59h-5c-.39,2.82-.79,5.79-1.12,8.18l-5.26.57c-.57-1-.38-3.3-2.65-1.49-.27.22-1.07-.2-1.88-.38l-.94,2-.55-.07q-.51-7.35-1-14.71c-1.42-.2-2.45.85-2.51,3-.1,3.78,0,7.57,0,11.53H60.36l-.29-1.9c-1.43,3.25-5,1.29-7.07,2.84l-.6-1-.62,1.4-3.09-1.17c-.59,1.64.46,4.11-2.61,4.7,1-2.64,2-5.21-1.38-6.91l-1.14,5.21c-1.19-5.12,2-9.6,1.11-14.54H51c0,2-.09,4.09,0,6.14,0,.63.62,1.63,1.12,1.74,1.26.29,1.27-.77,1.38-1.73a8.07,8.07,0,0,0-3.1-7.71c-.86-.69-1.5-1.66-2.37-2.33-3.45-2.66-3.65-6.34-3.22-10.17.39-3.46,3.53-5.32,8.3-5.06,4.56.26,6.49,2,6.56,5.81,0,1.58,0,3.16,0,4.86H53.3c0-1.62.06-3.25,0-4.88,0-.45-.53-.87-.81-1.3-.29.43-.77.84-.85,1.31a7.17,7.17,0,0,0,2.68,7c2.09,1.87,3.88,4.07,5.89,6.21V457.44H67c0,3.62,0,7.14,0,10.66,0,1.31.27,2,2,1.47V457.48h6.65v26.57l.47.06c1.47-8.87,2.93-17.74,4.41-26.68H89L93,481l.64-.06V457.19a107.21,107.21,0,0,1,11.15.6c3.15.49,4.49,2.6,4.51,5.82,0,5.69,0,11.38,0,17.07,0,2.61-.52,4.81-3.4,6.3,2.41,1,3.53,2.68,3.32,4.92-.17,1.69.74,3.87-1.33,4.68l-3.55-.57-.26-.89-1,.75c0-1.53.08-2.7,0-3.85,0-.44-.5-.84-.76-1.26-.36.41-1,.8-1,1.24-.14,1.51-.09,3-.09,4.57,0,5.13,0,10.27,0,15.4,0,.63.67,1.25,1,1.87a6.4,6.4,0,0,0,.81-1.85c.13-1.3-.17-2.67.09-3.94s.7-2.75,1.59-3.41c.73-.53,2.26,0,3.58.13.07-.95.17-2.32.28-3.68l.65,0V504c0,2.57-.16,5.15.06,7.7.36,4.3-2.28,5.67-5.65,6.28a12.21,12.21,0,0,1-4.13-.11c-3.72-.62-5.13-2.33-5.15-6.09,0-4.64,0-9.28,0-14.14l-1.13.66,1.34-4.27-.53-.46c-1.57,3.11-3.3,5.95-7.39,4.83,5-1.83,6.12-7.09,9.61-10.56-1.55-.13-2.94-.33-4.33-.32-.4,0-.93.52-1.18.94a32.79,32.79,0,0,0-2.24,4.22c-1.35,3.28-3.12,5.82-7.43,4.85l.13.61,10,1.57a7.8,7.8,0,0,1-2.17.5c-3.72-.24-7.47-.38-11.15-1s-6.64-.1-9.43,2.74a22.17,22.17,0,0,1-7,4.26c-1.25.55-3,.27-4.45,0-5.36-1.07-10.15-3.47-14.81-6.28-3.32-2-7-3-11-1.43-1.23.5-2.72.35-4.07.6-1.64.3-3.28.67-4.9,1.08-2.32.6-4.61,1.32-7,1.81-.35.07-1.25-.77-1.31-1.25C13.81,499.21,13.91,497.61,13.91,495.91Zm86.73-12.37.57.33c.44-.67,1.24-1.33,1.25-2q.15-9.36,0-18.72c0-.68-.82-1.35-1.26-2l-.56.31ZM85,466.6c-1.69,3.3-1.28,9,.8,10.52Z"/>
      <path class="cls-23" d="M204.29,477.54a10.27,10.27,0,0,0-.8,1.92c-.43,2.15-.49,4.43-2.69,5.78-.13.07.13,1,.39,1.43.39.62,1.16,1.08,1.38,1.73.75,2.29,1.33,4.63,2.12,7.46.76-2.54,1.49-4.54,1.94-6.6.38-1.73,1.05-2.69,3-2.41a28.42,28.42,0,0,0,3.83,0c-1.43,4.42-2.84,8.55-4.07,12.73a6.15,6.15,0,0,0,0,3.35c1.45,4.91,3.05,9.76,4.66,14.83h-6.93c-.06-2.28-2.92-4.66-.35-6.76a8.85,8.85,0,0,1-.75-2.41c-.05-1.69.2-3.41-2-4.58-.61,3-1.2,5.87-1.79,8.74H202v-3.68c-.74.42-1.13.62-1.5.86-.07,0-.07.27-.06.4.19,2.42.1,4.73-2.29,6l-1.24-1.58-.57.1.22,2.9c-9.1.38-18.55,0-28.09.16V487h6.6v26.83h6.26V487h13.1v3.66h-6.15v8.6h5.45V503h-5.47v11h6.2l.25,2c.15-.21.31-.33.36-.49,1.47-4.76,3-9.52,4.35-14.3a4.27,4.27,0,0,0-.12-2.21c-1.11-3.93-2.29-7.84-3.51-12h3.79c.52-3.57,1-6.92,1.53-10.57l-6.73,3.4c4.16-4.1,7.84-5.4,9.91-2.26Z"/>
      <path class="cls-23" d="M186.05,461.83c-3,2.27-6.09,4.46-9,6.83-2.51,2-5.25,1.26-8,1s-5.2-.77-7.81-1-5.23,0-7.48,2c-.72-3.56,1.67-5.36,3.74-6.88a28.94,28.94,0,0,1,13.66-5.13c1.34-.16,2.76-1.05,4.37-.43,1.85.71,3.93.81,5.82,1.45A42.58,42.58,0,0,1,186.05,461.83Zm-9,0,6.82-.49C180,459.78,178,459.94,177.07,461.84Z"/>
      <path class="cls-23" d="M228.7,483.59a7.39,7.39,0,0,1-5.39,2.92,14.67,14.67,0,0,1-11.12-3.71,17.93,17.93,0,0,0-2.48-1.6c-3.62-2.27-6-5.58-7.81-9.36,10.34,1.88,20.62,4.21,31.2,1.78a29.84,29.84,0,0,0-1,3.4c-.39,2.26-.77,2.65-3.16,2.27-2.94-.46-5.83-1.21-8.78-1.54-2.31-.27-4.67,0-7-.13s-4.77-.32-7.14-.49a7.86,7.86,0,0,0,6.25,2.72c3.8,0,7.59.4,11.39.55C225.91,480.49,227.39,481.8,228.7,483.59Z"/>
      <path class="cls-23" d="M21.44,482.57c1.79-1.69,3.56-3.42,5.41-5a1.65,1.65,0,0,1,1.49.09c4.26,2.68,8.5,5.41,12.72,8.15a1.72,1.72,0,0,1,.6,1c.34,1.58.61,3.18.92,4.86C36.2,487.25,30.84,480.38,21.44,482.57Z"/>
      <path class="cls-23" d="M233.21,463.22l.69,3.67a16.61,16.61,0,0,0-10.08,2.4c-1,.59-2.47.4-3.72.56-1,.13-2.07.17-3.09.36a27.51,27.51,0,0,1-4.29,1,14.8,14.8,0,0,1-4.57-.92c1.55-.27,3.08-.62,4.64-.78,4.87-.51,9.54-1.42,13.51-4.69.95-.78,2.68-.61,4-.89C231.18,463.7,232,463.5,233.21,463.22Z"/>
      <path class="cls-23" d="M41.78,477.24l.23,4.52c-.87-.79-1.24-1.09-1.55-1.43a15.74,15.74,0,0,0-6.56-4.57,10.09,10.09,0,0,1-3.09-1.68c-2.09-1.67-4.18-2.71-6.79-.71-.16-.93-.32-1.53-.36-2.14a1.92,1.92,0,0,1,2.83-1.89c4.35,2.09,8.73,4.16,13.07,6.28a16,16,0,0,1,2,1.37A1.57,1.57,0,0,1,41.78,477.24Z"/>
      <path class="cls-23" d="M18.5,485.49c1.82,3.07,4.45,3.33,7.12,3.47,3.38.17,6.76.34,10.14.47,2.32.08,3.05.38,5.27,2.65L15.91,490Z"/>
      <path class="cls-23" d="M216.52,490.17c2.82,3.29,4.78.68,7.07-1,0,2.17,0,3.82,0,5.46s-3.08,2.7-4.6,1.86l-.35-.23L216,494.38C216.12,493.13,216.28,491.92,216.52,490.17Z"/>
      <path class="cls-23" d="M29.63,465.89a7.87,7.87,0,0,1,.25-2.66,10.21,10.21,0,0,1,2.07-2,16.78,16.78,0,0,0,1.66,3.47A6.08,6.08,0,0,0,36,466a41.83,41.83,0,0,1,4,1.71C36.22,467.92,32.28,468.91,29.63,465.89Z"/>
      <path class="cls-23" d="M41.78,477.24a1.57,1.57,0,0,0-.2-.25l-.15-3.14-.72,1.74-4.39-6.44C42.16,469.72,44,472.61,41.78,477.24Z"/>
      <path class="cls-23" d="M222,500.53c-1,1-1.7,2.35-2.55,2.44s-2.12-.84-3-1.53a1.75,1.75,0,0,1-.1-1.64,3.7,3.7,0,0,1,2.35-.8A15.1,15.1,0,0,1,222,500.53Z"/>
      <path class="cls-23" d="M161.07,470.05c-2.92.16-5.57.73-6.94,3.81a24.22,24.22,0,0,1-2.3,3.31c2.19-7.16,3.35-8,9.19-7.08Z"/>
      <path class="cls-23" d="M66.82,490.34c2.3-.49,2.45,1.33,3.26,2.54C67.91,493.29,67.91,493.29,66.82,490.34Z"/>
      <path class="cls-23" d="M204.27,477.58c.5,1.31,2,2.51.35,4.07-.1.1.58,1.05,1,1.71l-1.29.29v-6.11Z"/>
      <path class="cls-23" d="M218,506.19c-.08-.57-.42-1.31-.18-1.67s1.1-.74,1.68-1.09l.48.51-1.22,2.37Z"/>
      <path class="cls-23" d="M69.88,507.39c-1.64,2-3.56.45-5.35.45Z"/>
    </g>
    <image width="832" height="267" transform="translate(1024.47 446) scale(0.3)" xlink:href="../Downloads/spyjinx_logo-832x267-587351704-832x267-494326996.png"/>
    <rect class="cls-7" x="856.34" y="906.83" width="190.16" height="50"/>
    <text class="cls-8" transform="matrix(1, 0.01, -0.01, 1, 885.99, 939.15)">LEARN MORE</text>
  </g>
  <g id="Layer_3" data-name="Layer 3">
    <rect class="cls-25" y="-2" width="1280" height="41"/>
  </g>
  <g id="Layer_2" data-name="Layer 2">
    <g>
      <path class="cls-24" d="M9,27.33V8.78c0-.18,0-.35.08-.53a1.3,1.3,0,0,1,1.09-1.13A4.3,4.3,0,0,1,11,7H29.42a4.36,4.36,0,0,1,.81.08,1.33,1.33,0,0,1,1.13,1,3.32,3.32,0,0,1,.1.77V27.06a5.39,5.39,0,0,1-.06.8,1.15,1.15,0,0,1-.45.8,2.76,2.76,0,0,1-.61.33c-2.62,1.1-5.23,2.2-7.86,3.29a15.49,15.49,0,0,1-2.08.82h-.34l-.14,0-.66-.25-7.38-3.09c-.7-.29-1.4-.58-2.09-.9a1.19,1.19,0,0,1-.73-1Zm19.13-13v-2a4.89,4.89,0,0,0,0-.54,1.45,1.45,0,0,0-1.38-1.35c-.43,0-.87,0-1.3,0a2.85,2.85,0,0,0-.41,0,1.42,1.42,0,0,0-1.23,1.15,3.61,3.61,0,0,0-.07.73q0,3.16,0,6.33a4,4,0,0,0,0,.6,1.4,1.4,0,0,0,.84,1.14,2.38,2.38,0,0,0,.65.16c.35,0,.71,0,1.06,0a3.68,3.68,0,0,0,.58-.05,1.4,1.4,0,0,0,1.17-1,2.43,2.43,0,0,0,.1-.6c0-.82,0-1.63,0-2.45,0,0,0,0,0-.07H26.66v2.19a1.34,1.34,0,0,1,0,.2.42.42,0,0,1-.4.43,2.49,2.49,0,0,1-.61,0,.4.4,0,0,1-.39-.38,1.79,1.79,0,0,1,0-.23V12.24a.47.47,0,0,1,.46-.49H26c.45,0,.62.17.62.63v1.91Zm-11.67-3.8v10H18V16.86h.16c.41,0,.82,0,1.23-.06a1.36,1.36,0,0,0,1.23-1.1A3.46,3.46,0,0,0,20.7,15c0-.87,0-1.75,0-2.62a3.05,3.05,0,0,0-.06-.6,1.36,1.36,0,0,0-1-1.17,2.64,2.64,0,0,0-.74-.1c-.77,0-1.54,0-2.3,0Zm-4.14,0v10h3.4V19.09H13.85v-3h1.77V14.69H13.84V11.87H15.7V10.49Zm9.06,0v10H22.9v-10Zm.15,15.46h.75s0-.05,0-.08V23c0-.06,0-.09-.09-.09h-.7a.15.15,0,0,0-.1.06l-.35.55c-.11.19-.23.37-.35.57l0-.06-.6-1a.24.24,0,0,0-.26-.15c-.13,0-.27,0-.41,0h-.26v3H20V24.21h0l.76,1.18.78-1.19h0ZM16,29.53h0l.1,0,4,1.38a.28.28,0,0,0,.18,0l4.21-1.39.08,0H16Zm-.86-6.24-.13-.1a1.77,1.77,0,0,0-1.37-.31,1.53,1.53,0,0,0-1.32,1.58,1.49,1.49,0,0,0,1.12,1.47,1.94,1.94,0,0,0,1.75-.36.17.17,0,0,0,0-.12c0-.39,0-.78,0-1.17,0,0,0-.06,0-.09H13.83v.6h.6v.31a.09.09,0,0,1-.07.1,1,1,0,0,1-.63.08.82.82,0,0,1-.63-.92.79.79,0,0,1,1-.76,1.38,1.38,0,0,1,.54.27Zm7.84-.37v2.93c0,.08,0,.1.09.1h2.32v-.69H23.73v-.51h1.43v-.65H23.73V23.6h1.59v-.68ZM15.5,26h.78a.1.1,0,0,0,.08-.06c.06-.14.12-.29.17-.43a.11.11,0,0,1,.11-.08h1a.1.1,0,0,1,.11.07c0,.13.1.25.14.37s.08.15.19.14h.71l0-.09c-.13-.31-.26-.63-.4-.95L17.58,23a.1.1,0,0,0-.11-.07h-.59a.14.14,0,0,0-.15.1l-1,2.3C15.68,25.51,15.59,25.72,15.5,26Zm12.23-2.12.39-.56L28,23.19a1.89,1.89,0,0,0-1.33-.31,1.07,1.07,0,0,0-.69.33.86.86,0,0,0,.22,1.35,4.44,4.44,0,0,0,.55.19c.16.05.33.09.49.15a.19.19,0,0,1,.14.21.18.18,0,0,1-.17.18,1.14,1.14,0,0,1-.66-.06c-.17-.07-.33-.17-.5-.26l-.44.53.05,0a2.07,2.07,0,0,0,1.79.4.9.9,0,0,0,.72-.68.79.79,0,0,0-.43-1,5.49,5.49,0,0,0-.57-.2,4.36,4.36,0,0,1-.51-.17.18.18,0,0,1,0-.33.37.37,0,0,1,.18,0,1.34,1.34,0,0,1,.35.05C27.38,23.66,27.55,23.75,27.73,23.83Z"/>
      <path class="cls-1" d="M20.4,33.1a15.49,15.49,0,0,0,2.08-.82c2.63-1.09,5.24-2.19,7.86-3.29a2.76,2.76,0,0,0,.61-.33,1.15,1.15,0,0,0,.45-.8,5.39,5.39,0,0,0,.06-.8V8.89a3.32,3.32,0,0,0-.1-.77,1.33,1.33,0,0,0-1.13-1A4.36,4.36,0,0,0,29.42,7H11a4.3,4.3,0,0,0-.87.1A1.3,1.3,0,0,0,9.08,8.25C9,8.43,9,8.6,9,8.78V7H31.48V33.1Z"/>
      <path class="cls-1" d="M9,27.33l.06.47a1.19,1.19,0,0,0,.73,1c.69.32,1.39.61,2.09.9l7.38,3.09.66.25.14,0H9Z"/>
      <path class="cls-2" d="M28.13,14.28h-1.5V12.37c0-.46-.17-.63-.62-.63h-.32a.47.47,0,0,0-.46.49v6.35a1.79,1.79,0,0,0,0,.23.4.4,0,0,0,.39.38,2.49,2.49,0,0,0,.61,0,.42.42,0,0,0,.4-.43,1.34,1.34,0,0,0,0-.2V16.38h1.49s0,.05,0,.07c0,.82,0,1.63,0,2.45a2.43,2.43,0,0,1-.1.6,1.4,1.4,0,0,1-1.17,1,3.68,3.68,0,0,1-.58.05c-.35,0-.71,0-1.06,0a2.38,2.38,0,0,1-.65-.16,1.4,1.4,0,0,1-.84-1.14,4,4,0,0,1,0-.6q0-3.16,0-6.33a3.61,3.61,0,0,1,.07-.73A1.42,1.42,0,0,1,25,10.44a2.85,2.85,0,0,1,.41,0c.43,0,.87,0,1.3,0a1.45,1.45,0,0,1,1.38,1.35,4.89,4.89,0,0,1,0,.54v2Z"/>
      <path class="cls-2" d="M16.46,10.48h.11c.76,0,1.53,0,2.3,0a2.64,2.64,0,0,1,.74.1,1.36,1.36,0,0,1,1,1.17,3.05,3.05,0,0,1,.06.6c0,.87,0,1.75,0,2.62a3.46,3.46,0,0,1-.09.72,1.36,1.36,0,0,1-1.23,1.1c-.41.06-.82,0-1.23.06H18v3.62H16.46Zm1.53,5c.28,0,.55,0,.81,0a.39.39,0,0,0,.35-.34,2.45,2.45,0,0,0,0-.27V12.48a1.21,1.21,0,0,0,0-.19.44.44,0,0,0-.4-.44,1.77,1.77,0,0,0-.33,0H18Z"/>
      <path class="cls-2" d="M12.32,10.49H15.7v1.38H13.84v2.82h1.78v1.39H13.85v3h1.87v1.39h-3.4Z"/>
      <path class="cls-2" d="M21.38,10.48H22.9v10H21.38Z"/>
      <path class="cls-2" d="M21.53,25.94V24.2h0l-.78,1.19L20,24.2h0v1.73h-.78v-3h.26c.14,0,.28,0,.41,0a.24.24,0,0,1,.26.15l.6,1,0,.06c.12-.2.24-.38.35-.57l.35-.55a.15.15,0,0,1,.1-.06h.7c.07,0,.09,0,.09.09v2.86s0,.08,0,.08Z"/>
      <path class="cls-2" d="M16,29.53h8.61l-.08,0L20.27,31a.28.28,0,0,1-.18,0l-4-1.38-.1,0Z"/>
      <path class="cls-2" d="M15.09,23.29l-.47.58a1.38,1.38,0,0,0-.54-.27.79.79,0,0,0-1,.76.82.82,0,0,0,.63.92,1,1,0,0,0,.63-.08.09.09,0,0,0,.07-.1v-.31h-.6v-.6h1.36s0,.06,0,.09c0,.39,0,.78,0,1.17a.17.17,0,0,1,0,.12,1.94,1.94,0,0,1-1.75.36,1.49,1.49,0,0,1-1.12-1.47,1.53,1.53,0,0,1,1.32-1.58,1.77,1.77,0,0,1,1.37.31Z"/>
      <path class="cls-2" d="M22.93,22.92h2.39v.68H23.73v.49h1.43v.65H23.73v.51h1.61v.69H23c-.07,0-.09,0-.09-.1V22.92Z"/>
      <path class="cls-2" d="M15.5,26c.09-.23.18-.44.27-.66l1-2.3a.14.14,0,0,1,.15-.1h.59a.1.1,0,0,1,.11.07l.81,1.95c.14.32.27.64.4.95l0,.09h-.71c-.11,0-.16,0-.19-.14s-.1-.24-.14-.37a.1.1,0,0,0-.11-.07h-1a.11.11,0,0,0-.11.08c-.05.14-.11.29-.17.43a.1.1,0,0,1-.08.06Zm1.66-2.09-.35.87h.69Z"/>
      <path class="cls-2" d="M27.73,23.83c-.18-.08-.35-.17-.52-.23a1.34,1.34,0,0,0-.35-.05.37.37,0,0,0-.18,0,.18.18,0,0,0,0,.33,4.36,4.36,0,0,0,.51.17,5.49,5.49,0,0,1,.57.2.79.79,0,0,1,.43,1,.9.9,0,0,1-.72.68,2.07,2.07,0,0,1-1.79-.4l-.05,0,.44-.53c.17.09.33.19.5.26a1.14,1.14,0,0,0,.66.06.18.18,0,0,0,.17-.18.19.19,0,0,0-.14-.21c-.16-.06-.33-.1-.49-.15a4.44,4.44,0,0,1-.55-.19A.86.86,0,0,1,26,23.21a1.07,1.07,0,0,1,.69-.33,1.89,1.89,0,0,1,1.33.31l.11.08Z"/>
      <path class="cls-24" d="M18,15.52V11.83h.44a1.77,1.77,0,0,1,.33,0,.44.44,0,0,1,.4.44,1.21,1.21,0,0,1,0,.19v2.39a2.45,2.45,0,0,1,0,.27.39.39,0,0,1-.35.34C18.54,15.51,18.27,15.51,18,15.52Z"/>
      <path class="cls-24" d="M17.16,23.86l.34.87h-.69Z"/>
    </g>
    <text class="cls-26" transform="translate(65.38 24.26)">S<tspan class="cls-27" x="5.92" y="0">T</tspan><tspan class="cls-28" x="11.56" y="0">ORE</tspan></text>
    <text class="cls-26" transform="translate(121.35 24.14)">N<tspan class="cls-29" x="7.9" y="0">E</tspan><tspan x="13.91" y="0">WS</tspan></text>
    <text class="cls-26" transform="translate(281.33 24.25)">HELP</text>
    <g>
      <path class="cls-25" d="M1052,33.61c0-7.83,0-15.66,0-23.5,0-.71.13-.87.86-.87,6.94,0,13.88,0,20.82,0a2,2,0,0,1,.13,1.15c0,7.33,0,14.66,0,22,0,1.08-.29,1.38-1.37,1.37-6.43,0-12.87,0-19.3,0A2,2,0,0,1,1052,33.61Z"/>
      <path class="cls-25" d="M1052,33.61c6.83,0,13.66,0,20.48,0,1,0,1.21-.23,1.21-1.21,0-7.72,0-15.44,0-23.16.52,0,.25.36.25.52,0,7.79,0,15.58,0,23.37,0,.42.11.75-.59.74-7,0-14,0-21.08,0C1052.05,33.88,1052,33.83,1052,33.61Z"/>
      <path class="cls-24" d="M1059.6,30.72a20.93,20.93,0,0,1-3.54-.16,1.6,1.6,0,0,1-1.4-1.34,1.9,1.9,0,0,1,.79-2.17c.71-.42,1.44-.81,2.14-1.23a2.57,2.57,0,0,0,.41-4.34,6.7,6.7,0,0,1-.57-8.73,5.31,5.31,0,0,1,5.84-1.39,4.92,4.92,0,0,1,3.23,5c0,2,0,4-2,5.35a2.43,2.43,0,0,0-.19,3.51,1.15,1.15,0,0,1,.16,1.61,3.68,3.68,0,0,0-.58,2.74c.17.83-.18,1.14-1,1.14Z"/>
      <path class="cls-24" d="M1068.84,32.55a3.39,3.39,0,0,1-3.42-3.25,3.34,3.34,0,0,1,3.36-3.28,3.3,3.3,0,0,1,3.39,3.22A3.34,3.34,0,0,1,1068.84,32.55Z"/>
      <path class="cls-25" d="M1068.79,31.21a1.94,1.94,0,0,1,0-3.88,2,2,0,0,1,1.89,2A2.06,2.06,0,0,1,1068.79,31.21Z"/>
    </g>
    <g>
      <path class="cls-25" d="M980,36.77c0-9.85,0-19.7,0-29.55,0-1,.25-1.22,1.24-1.22,11.79,0,23.58,0,35.37,0a2.45,2.45,0,0,1,.16,1.41c0,9.29,0,18.57,0,27.85,0,1.33-.35,1.69-1.68,1.68-11.23-.05-22.45,0-33.68,0A2.52,2.52,0,0,1,980,36.77Z"/>
      <path class="cls-25" d="M980,36.77c11.71,0,23.42,0,35.13,0,1.19,0,1.49-.28,1.48-1.48,0-9.76,0-19.53,0-29.3.63,0,.31.44.31.64,0,9.85,0,19.71,0,29.56,0,.77-.18.89-.92.89-11.79,0-23.58,0-35.37,0C980.47,37.07,980,37.4,980,36.77Z"/>
      <path class="cls-24" d="M1010.86,26.27a7.34,7.34,0,0,1-2.21,3.83.46.46,0,0,1-.58-.23,2.5,2.5,0,0,0-4,.14,25.68,25.68,0,0,1-1.4,2.63c1.4-.17,2.36-1.81,4.08-1.52.21.14.35.31.24.58-5.4,4.83-14.69,3.57-18.64-2.41-3.28-5-3.23-9.86-.1-14.83.34-.54.62-1.12,1.39-1.13.28.61.5,1.23,1.43,1.09s2,.22,2.47-.95c.31-.72.66-1.41,1-2.19-.89-.11-1.58.7-2.38.23a.47.47,0,0,1,.06-.63c4-2.56,8.18-2.58,12.43-.64,5.42,2.48,8.2,9.43,6.81,14.32a.31.31,0,0,1-.45,0c-.36-.39-.32-.93-.53-1.38-.13-.65-.58-.82-1.17-.82s-1.28,0-1.92,0c-1.19-.1-1.83.33-1.74,1.6,0,.15-.07.31-.06.47.06.77-1,1.61,0,2.31.78.54,3.3,0,4-.73.31-.35.55-.8,1.1-.83C1011.17,25.46,1011,25.86,1010.86,26.27Z"/>
      <path class="cls-25" d="M992.22,11.44A8.82,8.82,0,0,1,996,10.25a18.59,18.59,0,0,0-2.21,4.38c-.15.47-.6.37-.95.37H989c-.17-.77,1-.92.69-1.67l.6-.49C990.87,12.29,991.21,11.4,992.22,11.44Z"/>
      <path class="cls-24" d="M992.22,11.44c-.73.35-1,1.36-1.94,1.4.1-1.19,1-1.6,1.94-2Z"/>
      <path class="cls-24" d="M1008.22,29.65l.43.45a4,4,0,0,1-1.62,1.6l-.47-.44A1.5,1.5,0,0,1,1008.22,29.65Z"/>
      <path class="cls-24" d="M1011.14,24.59l.32,0a2.09,2.09,0,0,1-.6,1.71,1.47,1.47,0,0,0-.31-1.05c-.2-.31,0-.52.21-.71A.36.36,0,0,1,1011.14,24.59Z"/>
      <path class="cls-25" d="M989.78,21.72c2.87,0,2.87,0,3.15,2.74.3,3.07.3,3.07-2.75,3.07-2.11,0-3.25-1.11-3.39-3.31C986.62,21.72,986.62,21.72,989.78,21.72Z"/>
      <path class="cls-25" d="M1010.82,24.74c-.19.1-.34.23-.27.48-.43.76-.29,2.06-1.27,2.22a15.8,15.8,0,0,1-4.45,0c-.57-.07-.53-1.1-.31-1.52a6.73,6.73,0,0,0,.54-3.26c0-.68.24-.94.93-.92a38.12,38.12,0,0,0,4,0c1-.07,1.17.42,1.15,1.2C1010.8,23.47,1011.21,24.17,1010.82,24.74Z"/>
      <path class="cls-25" d="M989.73,20.81c-3.34,0-3.23,0-2.34-3.19A1.9,1.9,0,0,1,989.75,16c1.11.1,2.51-.45,3.25.22s-.23,2-.11,3c.15,1.36-.45,1.8-1.73,1.6A9.74,9.74,0,0,0,989.73,20.81Z"/>
      <path class="cls-25" d="M1004.12,25.21c-.82,2.45-1.07,2.58-3.85,2.34-.67-.06-1-.27-.92-.94,0-.43,0-.85,0-1.28,0-4,0-4,4.11-3.64.75.07.87.41.9,1C1004.07,23.5,1004.46,24.39,1004.12,25.21Z"/>
      <path class="cls-25" d="M1008,20.81c-2.72,0-2.72,0-3.15-2.72-.32-2.1-.32-2.1,1.88-2.1,3.25,0,3.44.2,4.09,3.39.23,1.12,0,1.59-1.23,1.44A14,14,0,0,0,1008,20.81Z"/>
      <path class="cls-25" d="M993.57,23.27c-.17-1.29.48-1.56,1.67-1.54,3.18.06,3.18,0,3.18,3.26,0,2.55,0,2.4-2.49,2.59-2,.15-2.19-.88-2.13-2.36C993.49,24.6,993.83,23.9,993.57,23.27Z"/>
      <path class="cls-25" d="M1001.7,20.81c-2.43,0-2.43,0-2.43-2.77,0-2.1,0-2.1,2.29-2.1s2.58.53,2.58,3.73C1004.14,20.81,1004.14,20.81,1001.7,20.81Z"/>
      <path class="cls-25" d="M996,20.77c-2.38,0-2.38,0-2.17-2.32s2-3.35,4.14-2.49a.56.56,0,0,1,.4.58v3.67c0,.53-.38.56-.77.56Z"/>
      <path class="cls-25" d="M996.2,33.55a11.15,11.15,0,0,1-6.77-3.93c-.25-.28-.51-.62-.32-1s.57-.14.86-.18.32,0,.48,0c2-.29,3.64,0,4.15,2.49A9.48,9.48,0,0,0,996.2,33.55Z"/>
      <path class="cls-25" d="M1008.22,29.65l-1.66,1.61a12.59,12.59,0,0,1-5.2,2.3,7.4,7.4,0,0,0,2.07-3.5,2.08,2.08,0,0,1,2.53-1.63c.89.08,1.79,0,2.7,0C1008.78,29,1008.29,29.26,1008.22,29.65Z"/>
      <path class="cls-25" d="M1002.24,11.06l-.69-1a11.59,11.59,0,0,1,7.27,4.75,18.61,18.61,0,0,1-4.32.14c-.55,0-.47-.64-.76-.93A4.3,4.3,0,0,1,1002.24,11.06Z"/>
      <path class="cls-25" d="M1001.12,28.44c2.31,0,2.36,0,1.42,2a6.32,6.32,0,0,1-2.15,2.88c-.71.44-1.08.35-1-.56a16.58,16.58,0,0,0,0-2.23C999.17,28.93,999.48,27.93,1001.12,28.44Z"/>
      <path class="cls-25" d="M1003.2,15c-3.94.19-4,.19-3.85-3.8,0-.38-.26-1,.27-1.09.33-.07.78.25,1.12.48a9.49,9.49,0,0,1,1,1A3.14,3.14,0,0,1,1003.2,15Z"/>
      <path class="cls-25" d="M994.23,28.55c4.15-.37,4.15-.37,4.14,3.42v1.71C996.07,32.58,995.36,30.54,994.23,28.55Z"/>
      <path class="cls-25" d="M998.37,12.47v.16c0,2.34-.82,2.94-3.12,2.38-.58-.14-.52-.43-.39-.79a8,8,0,0,1,2.13-3.5c.32-.27.65-.67,1.1-.49s.22.74.27,1.13A8.22,8.22,0,0,1,998.37,12.47Z"/>
      <path class="cls-24" d="M1003.2,15c-.11-1.29-.91-2.31-1.42-3.44.16-.15.31-.3.46-.46a6.74,6.74,0,0,1,1.5,3Z"/>
      <path class="cls-24" d="M1004.12,25.21a6.63,6.63,0,0,1,.24-2.54A4,4,0,0,1,1004.12,25.21Z"/>
      <path class="cls-24" d="M993.57,23.27a3.71,3.71,0,0,1,.23,1.95A2.42,2.42,0,0,1,993.57,23.27Z"/>
      <path class="cls-24" d="M1010.82,24.74a3.48,3.48,0,0,1,.32-1.85v1.7Z"/>
      <polyline class="cls-24" points="991.56 12.01 989.47 14.06 988.83 13.69 990.97 11.53"/>
    </g>
    <rect class="cls-30" x="1144" width="136" height="43"/>
    <text class="cls-26" transform="translate(1172.02 26.17)">G<tspan class="cls-31" x="7.75" y="0">E</tspan><tspan x="13.85" y="0">T EPIC G</tspan><tspan class="cls-32" x="54.77" y="0">A</tspan><tspan x="62.06" y="0">MES</tspan></text>
    <text class="cls-26" transform="translate(1078.87 25.22)">SIGN IN</text>
    <text class="cls-26" transform="translate(175.44 24.89)">UNREAL ENGINE</text>
    <g>
      <path class="cls-24" d="M561.38,512.33c-1.9,0-3.69,0-5.47,0-.38,0-.81-.48-1.09-.83-1.43-1.78-2.82-3.58-4.41-5.63v28.88l-.23.1c-1.53-1.66-3.09-3.31-4.57-5-.23-.25-.18-.78-.18-1.19,0-23.78,0-47.55-.06-71.33,0-2.08.45-3.46,2.33-4.39a20.8,20.8,0,0,0,2.63-1.81v13.27c2,0,3.84,0,5.7,0a2.53,2.53,0,0,1,1.45.54c1.45,1.17,2.83,2.42,4.4,3.78h-14c.73.72,1.23,1.26,1.79,1.74a1.89,1.89,0,0,1,.69,1.61q0,13.11,0,26.21v1.42c1.53-2,2.91-3.63,4.17-5.38A2.56,2.56,0,0,1,557,493c1.38.09,2.77,0,4.33,0-.79,1.06-1.49,2-2.21,3-1.51,2-3,4-4.55,5.94-.52.64-.39,1,.06,1.57,2.09,2.67,4.14,5.38,6.2,8.07C561,511.82,561.18,512,561.38,512.33Z"/>
      <path class="cls-24" d="M525.46,512.34c1.18-2.41,2.31-4.73,3.46-7.05,1.86-3.78,3.74-7.54,5.59-11.33a1.06,1.06,0,0,1,1.15-.74c.9.06,1.79,0,2.83,0v-1.16c0-6.48,0-13,0-19.45a3.1,3.1,0,0,1,1.27-2.94c.31-.2.61-.43.91-.66l-.17-.27H526.91c1.81-1.57,3.37-2.95,5-4.29.2-.17.59-.12.9-.13h5.71c0-1.69,0-3.27,0-4.85a1.31,1.31,0,0,1,.64-1.28c1.35-.89,2.65-1.87,4.11-2.9v72.56c-1.58-1.69-3.09-3.28-4.54-4.92a1.77,1.77,0,0,1-.19-1.08c0-4.4,0-8.8,0-13.21a1.06,1.06,0,0,0-.9-1.23c-.92-.27-1.84-.58-2.74-.94-.55-.22-.79-.08-1,.44-.73,1.6-1.49,3.19-2.3,4.75a1.27,1.27,0,0,1-.89.63C529,512.37,527.32,512.34,525.46,512.34Zm12.95-8.29v-7.42l-.35-.12c-.91,2.16-1.81,4.33-2.76,6.59Z"/>
      <path class="cls-24" d="M477.73,513.8v-3.22c0-3,0-6,0-9a2.43,2.43,0,0,0-.82-2c-.66-.61-1.24-1.3-1.89-2,.75-1.63,1.48-3.27,2.25-4.88a.94.94,0,0,0-.21-1.27c-.7-.66-1.32-1.41-2.11-2.27l4.22.45c2.92.33,5.83.77,8.76.95a6.14,6.14,0,0,1,4.22,1.77c1.95,1.92,2,1.84.9,4.33-1.27,2.83-1.3,2.86.93,5.08a1.76,1.76,0,0,1,.44,2.32c-1.23,2.81-2.29,5.69-3.46,8.53a1.14,1.14,0,0,1-.72.66c-4,.24-8,.44-12,.64A2.68,2.68,0,0,1,477.73,513.8Zm4.82-5.76c.68,0,1.27-.05,1.84,0a1.28,1.28,0,0,0,1.47-.93c.68-1.47,1.48-2.88,2.22-4.32.25-.5.47-1,.74-1.58l-6.27-.28Zm4.79-12.87-4.57-.3v5.4Z"/>
      <path class="cls-24" d="M494.1,491.13l10.36.8a27.74,27.74,0,0,0,3.52.23,5,5,0,0,1,3.47,1.3c.8.6,1.65,1.14,2.68,1.85l-6.36,5.85,7.82,18.39c-2.38-.85-4.62-1.64-6.83-2.48a1.56,1.56,0,0,1-.67-.83q-2.91-7-5.78-14c-.09-.21-.18-.41-.39-.91-.12,4.07-.23,7.82-.35,11.7h-4.9c0-2.22,0-4.5,0-6.77,0-1.46,0-2.92.13-4.37a1.82,1.82,0,0,0-.74-1.79,22.17,22.17,0,0,1-1.71-1.55c.7-1.37,1.36-2.69,2.06-4a.82.82,0,0,0-.24-1.23c-.77-.62-1.46-1.33-2.19-2Zm7.95,9.22,5-4.74-5-.22Z"/>
      <path class="cls-24" d="M598.09,493.4l-3.84-2.33L612,489.4c-1.15,1-2,1.79-3,2.54a1,1,0,0,0-.38,1.4c.37.82.62,1.68,1,2.68a23.24,23.24,0,0,1-3.83.31,5.63,5.63,0,0,0-5.42,2.71c.83,0,1.66,0,2.49,0,2.08-.09,4.15-.2,6.23-.35a1,1,0,0,1,1.15.74c.36,1,.81,2,1.16,3a1.13,1.13,0,0,1-.18.89c-2.68,3.31-5.37,6.61-8.1,9.89a1.49,1.49,0,0,1-1,.48c-1.87,0-3.74-.11-5.6-.24a1.09,1.09,0,0,1-.74-.62c-.63-1.75-1.19-3.51-1.82-5.39,1.86,0,3.64-.05,5.42,0a2.33,2.33,0,0,0,2.51-1.16,8.78,8.78,0,0,1,1-1.19c-2.58,0-5.06,0-7.54,0-2.15,0-2.09,0-2.93-2a2.51,2.51,0,0,1,.46-3.12C594.66,497.89,596.32,495.62,598.09,493.4Z"/>
      <path class="cls-24" d="M596.29,520.62c-2.35-1-4.5-1.9-6.63-2.85-.25-.12-.41-.53-.53-.83q-3-7.49-6.06-15a3.9,3.9,0,0,0-.28-.35c-.12,3.79-.24,7.4-.36,11.25-1.41-1.71-2.66-3.3-4-4.8a3,3,0,0,1-.84-2.53c.09-.75-.07-1.54.07-2.28a3.21,3.21,0,0,0-1.74-3.59c-.66-.4-.66-.81-.29-1.44.69-1.15,1.3-2.35,2-3.58l-3-2.21c.71-.08,1.23-.16,1.75-.2,4.46-.3,8.91-.6,13.38-.86a2.79,2.79,0,0,1,1.44.32c1.2.66,2.36,1.42,3.65,2.21l-3.55,4.29a5.48,5.48,0,0,1-.89,1c-1.73,1.28-1.43,2.7-.69,4.48,2.21,5.35,4.22,10.79,6.3,16.2C596.12,520.06,596.16,520.22,596.29,520.62Zm-8.09-25.37-5.3.24v5.59Z"/>
      <path class="cls-24" d="M565.41,498.5v1.63h6.43a2.94,2.94,0,0,1,3.12,3.2c0,.55,0,1.1,0,1.76h-9.31v2.06c2.38,0,4.7.12,7,0a3.83,3.83,0,0,1,3.86,1.88,45.42,45.42,0,0,0,3,3.76,6.52,6.52,0,0,1-.74,0c-4.51-.13-9-.25-13.51-.41a1.24,1.24,0,0,1-.86-.37c-2.44-3.06-4.84-6.14-7.3-9.26l4.29-5.84c.23-.31.45-.62.68-.92,2.29-3.21,2.3-3.14,6.23-3.38,2.06-.12,3.9.12,5.45,1.59a10.22,10.22,0,0,0,1.13.8c-.52.92-1,1.86-1.56,2.7a1.63,1.63,0,0,1-1.11.51c-1.14.08-2.28,0-3.43.07S566.62,498.42,565.41,498.5Z"/>
      <path class="cls-24" d="M519.42,498.3l-.21,2h9.93c-.85,1.61-1.58,3.05-2.38,4.46a1.22,1.22,0,0,1-.87.35c-1.87,0-3.74,0-5.61.05h-1.13l.18,2h6.37c-.91,1.75-1.76,3.39-2.64,5-.08.14-.41.22-.62.22-2.08.09-4.16.12-6.24.23a.88.88,0,0,1-1-.65q-2.06-4.8-4.17-9.59a.88.88,0,0,1,.24-1.15c2.09-2,4.15-4.08,6.28-6.2l-3-2.44,17.95.59c-.9,1.72-1.75,3.4-2.67,5-.11.2-.62.23-.94.22l-8.22-.12Z"/>
      <path class="cls-24" d="M520.2,473.93c-.62,1.32-1.18,2.58-1.8,3.8-.28.55-.31.92.21,1.33s.81.88,1.28,1.22a1.61,1.61,0,0,1,.48,2.36c-1.08,2.2-2,4.46-3.08,6.67a1.28,1.28,0,0,1-1,.64c-3.74-.11-7.47-.29-11.21-.45a1.89,1.89,0,0,1-.3-.15v-5.73a.41.41,0,0,1,0-.11c.2-2.14.19-4.19-2.38-5.09l2.33-4.16-3.63-2.79c.52,0,.84-.06,1.15-.06,4.37,0,8.74,0,13.11,0a3.37,3.37,0,0,1,2.47.8C518.57,472.8,519.36,473.31,520.2,473.93Zm-10.63,5.84v5.77c.74.06,1.42.14,2.11.15a.74.74,0,0,0,.6-.25c1.05-1.84,2.06-3.7,3.15-5.67Zm.07-4.93v4.28l4-4.28Z"/>
      <path class="cls-24" d="M576.23,478.18v4.41l-5,.25v1.84c1.9-.11,3.77-.18,5.62-.34a1.4,1.4,0,0,1,1.58.79c.75,1.36,1.58,2.66,2.45,4.09-1.12.1-2.09.2-3.07.26-2.84.16-5.68.29-8.51.47a1.23,1.23,0,0,1-1.37-.78c-1.84-3.59-3.74-7.15-5.67-10.82l3.64-3-5.78-3.85h21.44a30.74,30.74,0,0,0-1.88,2.54,4,4,0,0,1-4.28,2.29,38.89,38.89,0,0,0-4.19,0v1.88Z"/>
      <path class="cls-24" d="M531.23,490.39c0-1.05,0-2,0-2.9a1,1,0,0,0-.68-1.1c-1.08-.43-2.14-.95-3.3-1.49-.67,1.55-1.36,3-2,4.56a1.09,1.09,0,0,1-1.28.84c-1.48-.09-3,0-4.66,0l2.51-5.83c1.19-2.76,2.34-5.53,3.58-8.27a1,1,0,0,0-.4-1.44c-1.3-1-2.56-2.09-4-3.26h15.07v18.92Zm-.05-15.59-.32-.11c-1.28,1.91-1.58,4.25-2.62,6.33l2.94,1.28Z"/>
      <path class="cls-24" d="M552.74,471.46h5.11v14.11c1.72,0,3.37,0,5,0a1.19,1.19,0,0,1,1.34.8c.54,1.21,1.21,2.37,1.92,3.72l-13.38.33Z"/>
    </g>
    <use transform="translate(128.56 617.54)" xlink:href="#image"/>
  </g>
  <g id="Layer_4" data-name="Layer 4">
    <g class="cls-33">
      <rect class="cls-23" x="-42.03" y="520.92" width="749.01" height="616.09"/>
      <image width="1400" height="788" transform="translate(-126 552) scale(0.59 0.6)" xlink:href="../Downloads/windowsills.jpg"/>
    </g>
    <text class="cls-34" transform="translate(723.7 622.33)"><tspan class="cls-35">L</tspan><tspan class="cls-36" x="21.9" y="0">OREM IPSUM DO</tspan><tspan class="cls-35" x="376.76" y="0">L</tspan><tspan x="398.66" y="0">OR </tspan></text>
    <text class="cls-37" transform="translate(704.41 703.37)"><tspan class="cls-38">L</tspan><tspan class="cls-39" x="10.09" y="0">o</tspan><tspan class="cls-40" x="22.17" y="0">r</tspan><tspan x="29.16" y="0">em ipsum dolor sit ame</tspan><tspan class="cls-41" x="244.3" y="0">t</tspan><tspan class="cls-42" x="251.52" y="0">, </tspan><tspan class="cls-43" x="260.75" y="0">c</tspan><tspan x="270.48" y="0">onse</tspan><tspan class="cls-44" x="314.55" y="0">c</tspan><tspan class="cls-43" x="324.7" y="0">t</tspan><tspan x="331.86" y="0">etur adipiscing eli</tspan><tspan class="cls-45" x="494.37" y="0">t</tspan><tspan x="501.59" y="0">. </tspan><tspan class="cls-46" x="-6.04" y="26.43">M</tspan><tspan x="11.79" y="26.43">au</tspan><tspan class="cls-47" x="34.54" y="26.43">r</tspan><tspan class="cls-39" x="41.83" y="26.43">is in jus</tspan><tspan class="cls-43" x="108.62" y="26.43">t</tspan><tspan class="cls-39" x="115.78" y="26.43">o eget est malesuada aliquam. Suspendisse </tspan><tspan x="-15.69" y="52.85">sit amet </tspan><tspan class="cls-43" x="62.11" y="52.85">t</tspan><tspan x="69.27" y="52.85">o</tspan><tspan class="cls-48" x="81.36" y="52.85">r</tspan><tspan class="cls-43" x="89.08" y="52.85">t</tspan><tspan x="96.24" y="52.85">or </tspan><tspan class="cls-43" x="120.2" y="52.85">c</tspan><tspan x="129.93" y="52.85">ommod</tspan><tspan class="cls-49" x="203.27" y="52.85">o</tspan><tspan class="cls-42" x="214.83" y="52.85">, ult</tspan><tspan class="cls-50" x="248.67" y="52.85">r</tspan><tspan x="255.96" y="52.85">i</tspan><tspan class="cls-43" x="261.11" y="52.85">c</tspan><tspan x="270.85" y="52.85">es le</tspan><tspan class="cls-44" x="311.5" y="52.85">c</tspan><tspan x="321.65" y="52.85">tus non, efficitur </tspan><tspan class="cls-47" x="475.51" y="52.85">r</tspan><tspan x="482.8" y="52.85">isu</tspan><tspan class="cls-51" x="508.81" y="52.85">s</tspan><tspan class="cls-42" x="517.28" y="52.85">. </tspan><tspan class="cls-45" x="-24.16" y="79.28">E</tspan><tspan x="-13.39" y="79.28">tiam </tspan><tspan class="cls-40" x="32.7" y="79.28">v</tspan><tspan x="43.07" y="79.28">olutp</tspan><tspan class="cls-52" x="92.31" y="79.28">a</tspan><tspan x="102.84" y="79.28">t e</tspan><tspan class="cls-53" x="125.83" y="79.28">r</tspan><tspan x="132.81" y="79.28">os eget nisl </tspan><tspan class="cls-54" x="240.58" y="79.28">f</tspan><tspan class="cls-42" x="246.72" y="79.28">eu</tspan><tspan class="cls-43" x="269.89" y="79.28">g</tspan><tspan class="cls-39" x="282.07" y="79.28">i</tspan><tspan class="cls-52" x="287.22" y="79.28">a</tspan><tspan class="cls-41" x="297.75" y="79.28">t</tspan><tspan class="cls-42" x="304.97" y="79.28">, a </tspan><tspan class="cls-43" x="329.48" y="79.28">t</tspan><tspan x="336.63" y="79.28">empus elit </tspan><tspan class="cls-40" x="437.42" y="79.28">v</tspan><tspan x="447.8" y="79.28">enen</tspan><tspan class="cls-52" x="494.3" y="79.28">a</tspan><tspan x="504.83" y="79.28">ti</tspan><tspan class="cls-51" x="517.27" y="79.28">s</tspan><tspan class="cls-42" x="525.75" y="79.28">. </tspan><tspan class="cls-46" x="-9.15" y="105.7">S</tspan><tspan x="1.84" y="105.7">ed quam ma</tspan><tspan class="cls-43" x="117.12" y="105.7">g</tspan><tspan x="129.3" y="105.7">na, molestie ac </tspan><tspan class="cls-43" x="270.05" y="105.7">t</tspan><tspan x="277.21" y="105.7">empor a</tspan><tspan class="cls-40" x="353.71" y="105.7">c</tspan><tspan x="363.36" y="105.7">, </tspan><tspan class="cls-55" x="372.58" y="105.7">t</tspan><tspan class="cls-42" x="379.74" y="105.7">empor et nibh. </tspan><tspan class="cls-46" x="-11.91" y="132.13">M</tspan><tspan x="5.92" y="132.13">o</tspan><tspan class="cls-47" x="18.01" y="132.13">r</tspan><tspan class="cls-39" x="25.3" y="132.13">bi tu</tspan><tspan class="cls-47" x="67.08" y="132.13">r</tspan><tspan class="cls-39" x="74.37" y="132.13">pis mi, pulvinar eu libe</tspan><tspan class="cls-40" x="280.24" y="132.13">r</tspan><tspan x="287.22" y="132.13">o qui</tspan><tspan class="cls-51" x="333.66" y="132.13">s</tspan><tspan x="342.14" y="132.13">, hend</tspan><tspan class="cls-53" x="399.26" y="132.13">r</tspan><tspan x="406.24" y="132.13">e</tspan><tspan class="cls-47" x="417.27" y="132.13">r</tspan><tspan x="424.56" y="132.13">it ult</tspan><tspan class="cls-47" x="466.29" y="132.13">r</tspan><tspan class="cls-39" x="473.58" y="132.13">icies .</tspan></text>
    <text/>    <g class="cls-56">
      <circle class="cls-23" cx="313" cy="786" r="55"/>
      <use transform="translate(300.66 820.11) rotate(-123.75) scale(0.16)" xlink:href="#image"/>
    </g>
  </g>
</svg>
